<svg version="1.0" xmlns="http://www.w3.org/2000/svg" width="682.667" height="682.667" viewBox="0 0 512 512"><path d="M203.6 1.6c-19.3 4.6-36.6 22.1-41.7 42.1-.7 2.9-1.8 5.3-2.3 5.4-8.7.6-20.8 6.1-28 12.8-6.5 6-13.3 18.6-15.5 29-1.4 6.3-1 21.6.5 26.9.8 2.5 1.4 4.8 1.4 5.2 0 .4-18.5.7-41.2.7l-41.2.1-2.3 2.6-2.3 2.7v34.2c0 27.1.3 35.5 1.5 40 3.3 12.6 13.4 23.3 25.3 26.8l4.2 1.2V466H49c-12.6 0-13.2.1-15.5 2.5-2.5 2.4-2.5 2.6-2.5 20.5s0 18.1 2.5 20.5l2.4 2.5h118.5c88.4 0 119.2-.3 121.1-1.2 1.4-.6 2.8-2.2 3.1-3.5.7-2.7-.1-2.5 10.2-2.7 6.2-.1 8.2.1 8.2 1.2 0 .7 1.1 2.4 2.5 3.7l2.4 2.5h174.2l2.4-2.5c2.5-2.4 2.5-2.6 2.5-20.5s0-18.1-2.5-20.5c-2.3-2.4-2.9-2.5-15.5-2.5h-13v-54.5c0-30 .1-54.6.2-54.8.6-.9-2.7-4.8-5-5.9-2.6-1.3-2.7-1.5-2.7-10.1-.1-7.6.1-8.7 1.6-8.7 1 0 2.7-1.2 3.8-2.6 2.1-2.6 2.1-3.6 2.1-50.5 0-41.5.2-47.9 1.5-47.9 3.3 0 13.3-5.8 17.8-10.2 2.8-2.8 6.2-7.7 8-11.6l3.2-6.7.3-35.9c.4-39.5.2-41-5.1-42.2-1.7-.3-20.8-.7-42.4-.7-21.6 0-39.3 0-39.3-.1 0 0 .7-3.3 1.5-7.1 6.5-30.8-11.1-61.2-38.4-66.6l-5.8-1.1-1.3-5.1c-3.7-14.9-14.2-28.8-27.3-36.1-8.6-4.9-14.6-6.6-24.5-7.2-13.6-.7-25.1 2.9-37 11.8l-5.3 3.9-3.7-2.8c-7-5.4-12-8.2-18.3-10.3-8.1-2.7-22.1-3.4-30.3-1.4z"/></svg>