<svg aria-hidden="true" style="width:0;height:0;position:absolute;overflow:hidden" xmlns="http://www.w3.org/2000/svg"><defs><symbol id="icon-dot" viewBox="0 0 32 32"><path fill="#f1cdb3" style="fill:var(--color1,#f1cdb3)" d="M32 16c0 8.837-7.163 16-16 16S0 24.837 0 16 7.163 0 16 0s16 7.163 16 16z"/></symbol><symbol id="icon-close" viewBox="0 0 32 32"><path d="M19.803 16 31.212 4.591A2.69 2.69 0 0 0 27.409.788L16 12.197 4.591.788A2.69 2.69 0 0 0 .788 4.591L12.197 16 .788 27.409a2.69 2.69 0 0 0 3.803 3.803L16 19.803l11.409 11.409a2.69 2.69 0 0 0 3.803-3.803L19.803 16z"/></symbol><symbol id="icon-right-double" viewBox="0 0 73 32"><path d="M29.107 17.71 2.828 31.375v-3.892l21.847-11.392L2.828 4.727V.835L29.107 14.5v3.21zm40.934 0L43.763 31.375v-3.892l21.846-11.392L43.763 4.727V.835L70.041 14.5v3.21z"/></symbol><symbol id="icon-left-double" viewBox="0 0 73 32"><path fill="#cdcdcd" style="fill:var(--color2,#cdcdcd)" d="M28.936 31.375 2.658 17.71V14.5L28.936.835v3.892L7.089 16.091l21.847 11.392v3.892zm40.935 0L43.593 17.71V14.5L69.871.835v3.892L48.024 16.091l21.847 11.392v3.892z"/></symbol><symbol id="icon-right-one" viewBox="0 0 29 32"><path d="M26.301 17.71.023 31.375v-3.892L21.87 16.091.023 4.727V.835L26.301 14.5v3.21z"/></symbol><symbol id="icon-left-one" viewBox="0 0 29 32"><path fill="#cdcdcd" style="fill:var(--color2,#cdcdcd)" d="M29.04 31.375 2.762 17.71V14.5L29.04.835v3.892L7.193 16.091 29.04 27.483v3.892z"/></symbol><symbol id="icon-arrow-left" viewBox="0 0 75 32"><path d="M74.667 10.667v10.667H16v10.667l-16-16 16-16v10.667h58.667z"/></symbol><symbol id="icon-arrow-right" viewBox="0 0 75 32"><path d="M0 21.333V10.666h58.667V-.001l16 16-16 16V21.332H0z"/></symbol><symbol id="icon-bowls-and-cups" viewBox="0 0 34 32"><path fill="#f1cdb3" style="fill:var(--color1,#f1cdb3)" d="m33.676 21.252-1.605-10.785c-.026-3.132-1.927-6.036-5.226-7.976C24.112.884 20.56 0 16.843 0S9.574.885 6.841 2.491c-3.299 1.94-5.2 4.844-5.226 7.976L.01 21.252a.708.708 0 0 0-.008.113c0 3.171 2.113 6.108 5.798 8.057 3.017 1.596 6.939 2.475 11.044 2.475s8.027-.879 11.044-2.475c3.685-1.949 5.798-4.886 5.798-8.057a.859.859 0 0 0-.008-.113zM7.616 3.812c2.501-1.47 5.777-2.28 9.226-2.28s6.725.81 9.226 2.28c2.842 1.671 4.472 4.12 4.472 6.72s-1.63 5.049-4.472 6.72c-2.501 1.47-5.777 2.28-9.226 2.28s-6.725-.81-9.226-2.28c-2.842-1.671-4.472-4.12-4.472-6.72s1.63-5.049 4.472-6.72zm19.553 24.256c-2.8 1.481-6.468 2.297-10.327 2.297s-7.527-.816-10.327-2.297c-3.144-1.663-4.957-4.084-4.983-6.648l1.055-7.085c.878 1.643 2.327 3.105 4.253 4.237 2.733 1.606 6.285 2.491 10.002 2.491s7.269-.885 10.002-2.491c1.926-1.133 3.375-2.594 4.253-4.237l1.055 7.085c-.026 2.565-1.838 4.985-4.983 6.648z"/><path fill="#f1cdb3" style="fill:var(--color1,#f1cdb3)" d="M16.842 18c5.251 0 9.885-2.032 11.531-5.055a5.005 5.005 0 0 0 .635-2.412c0-2.073-1.32-3.99-3.717-5.399-2.269-1.334-5.27-2.068-8.449-2.068s-6.18.735-8.449 2.068C5.996 6.543 4.676 8.46 4.676 10.533c0 .828.214 1.64.635 2.412 1.646 3.024 6.28 5.056 11.531 5.056zm0-1.532c-4.404 0-8.405-1.582-9.962-3.892 1.557-2.308 5.559-3.889 9.962-3.889s8.405 1.581 9.962 3.889c-1.556 2.309-5.557 3.892-9.962 3.892zM6.208 10.532c0-1.508 1.052-2.956 2.961-4.079 2.037-1.198 4.762-1.857 7.673-1.857s5.636.66 7.673 1.857c1.91 1.123 2.961 2.571 2.961 4.079 0 .134-.009.268-.026.402-2.112-2.305-6.136-3.779-10.608-3.779S8.346 8.629 6.234 10.934a3.18 3.18 0 0 1-.026-.402zM16.842 22.327a.758.758 0 0 0-.554.237c-.499.523-2.127 2.326-2.127 3.593 0 1.478 1.203 2.681 2.681 2.681s2.681-1.203 2.681-2.681c0-1.266-1.628-3.07-2.127-3.593a.761.761 0 0 0-.554-.237zm0 4.979a1.15 1.15 0 0 1-1.149-1.149c0-.34.535-1.162 1.149-1.907.614.746 1.149 1.567 1.149 1.907a1.15 1.15 0 0 1-1.149 1.149z"/><path fill="#f1cdb3" style="fill:var(--color1,#f1cdb3)" d="M13.409 12.293h-.236a.766.766 0 0 0 0 1.532h.236a.766.766 0 0 0 0-1.532zM22.498 12.293h-5.464a.766.766 0 0 0 0 1.532h5.464a.766.766 0 0 0 0-1.532z"/></symbol><symbol id="icon-collars-or-leashes" viewBox="0 0 36 32"><path fill="#f1cdb3" style="fill:var(--color1,#f1cdb3)" d="M34.594 3.774c-.941-.757-2.269-1.431-3.946-2.002C27.289.629 22.837-.001 18.112-.001S8.935.629 5.577 1.772C3.9 2.343 2.572 3.016 1.631 3.774.548 4.645-.001 5.607-.001 6.631v7.919c0 1.024.549 1.986 1.632 2.857.941.757 2.269 1.431 3.946 2.002 3.191 1.086 7.368 1.708 11.828 1.768v2.839h-2.44a3.093 3.093 0 0 0-3.033-2.512 3.09 3.09 0 0 0-3.087 3.087c0 .74.263 1.441.727 1.99a3.078 3.078 0 0 0-.727 1.99 3.09 3.09 0 0 0 3.087 3.087 3.09 3.09 0 0 0 3.033-2.512h6.295a3.093 3.093 0 0 0 3.033 2.512 3.09 3.09 0 0 0 3.087-3.087c0-.74-.263-1.441-.727-1.99.47-.556.728-1.262.727-1.99a3.09 3.09 0 0 0-3.087-3.087 3.09 3.09 0 0 0-3.033 2.512h-2.44v-2.839c4.46-.06 8.637-.682 11.828-1.768 1.677-.571 3.004-1.244 3.946-2.002 1.083-.871 1.632-1.832 1.632-2.857V6.631c0-1.024-.549-1.986-1.632-2.857zM21.918 25.431a.713.713 0 0 0 .514-.222.702.702 0 0 0 .192-.525 1.674 1.674 0 0 1 1.669-1.765c.922 0 1.672.75 1.672 1.672a1.67 1.67 0 0 1-.757 1.399.699.699 0 0 0-.319.591.704.704 0 0 0 .319.591c.474.311.757.834.757 1.399 0 .922-.75 1.672-1.672 1.672a1.674 1.674 0 0 1-1.669-1.765.72.72 0 0 0-.192-.526.708.708 0 0 0-.514-.222h-7.61a.713.713 0 0 0-.514.222.702.702 0 0 0-.192.525l.003.093c0 .922-.75 1.672-1.672 1.672s-1.672-.75-1.672-1.672c0-.565.283-1.088.757-1.399a.699.699 0 0 0 .319-.591.704.704 0 0 0-.319-.591 1.67 1.67 0 0 1-.757-1.399c0-.922.75-1.672 1.672-1.672a1.674 1.674 0 0 1 1.669 1.765.72.72 0 0 0 .192.526.708.708 0 0 0 .514.222h7.61zm-3.805-5.664c-.94 0-1.704-.765-1.704-1.704s.765-1.704 1.704-1.704c.94 0 1.704.764 1.704 1.704s-.764 1.704-1.704 1.704zm16.698-5.217c0 2.239-5.646 4.709-14.043 5.148a3.109 3.109 0 0 0 .396-2.286c2.746-.18 5.297-.59 7.425-1.197a.708.708 0 1 0-.389-1.361c-2.184.623-4.847 1.029-7.719 1.181a3.112 3.112 0 0 0-4.745.01 40.29 40.29 0 0 1-5.502-.622.707.707 0 1 0-.261 1.39c1.589.299 3.297.504 5.087.612a3.093 3.093 0 0 0 .4 2.272c-8.397-.439-14.043-2.909-14.043-5.148V9.305l.01.008a7.589 7.589 0 0 0 .496.394l.002.001.161.115.024.017.157.106.033.021.164.105.024.015c.836.517 1.871.987 3.091 1.403 3.359 1.143 7.811 1.773 12.536 1.773s9.177-.63 12.536-1.773c1.221-.415 2.256-.886 3.092-1.403l.024-.015.164-.105.033-.021c.053-.035.106-.07.157-.106l.025-.017c.055-.038.109-.076.161-.115l.002-.001a7.589 7.589 0 0 0 .496-.394l.01-.008v5.244zM4.546 9.572c.616-.282 1.459-.605 2.58-.92 3.045-.854 6.947-1.324 10.987-1.324s7.942.47 10.987 1.324a17.64 17.64 0 0 1 2.58.92c-2.928 1.305-7.721 2.275-13.567 2.275s-10.639-.97-13.567-2.275zm30.261-2.837a1.29 1.29 0 0 1-.015.123l-.001.006a1.415 1.415 0 0 1-.056.221l-.006.018a2.153 2.153 0 0 1-.052.133l-.024.051a1.635 1.635 0 0 1-.052.102l-.005.009c-.294.531-.85.996-1.402 1.359-.733-.422-1.908-.961-3.712-1.467-3.166-.888-7.203-1.376-11.369-1.376S9.91 6.403 6.744 7.29c-1.804.506-2.979 1.045-3.712 1.467-.552-.363-1.108-.828-1.402-1.359l-.005-.009a1.635 1.635 0 0 1-.052-.102l-.024-.051-.018-.043c-.012-.03-.024-.059-.034-.089l-.006-.018a1.718 1.718 0 0 1-.056-.221l-.001-.006a1.29 1.29 0 0 1-.02-.227c0-2.467 6.858-5.216 16.698-5.216S34.81 4.165 34.81 6.632c0 .035-.002.069-.004.104z"/><path fill="#f1cdb3" style="fill:var(--color1,#f1cdb3)" d="M29.088 4.615a.72.72 0 0 0-.301-.45.714.714 0 0 0-.894.088.704.704 0 0 0-.206.501.721.721 0 0 0 .314.59.748.748 0 0 0 .254.105.728.728 0 0 0 .277 0 .745.745 0 0 0 .254-.105.704.704 0 0 0 .315-.59.71.71 0 0 0-.014-.138zM26.254 3.538c-2.438-.459-5.212-.701-8.024-.701-3.891 0-7.653.462-10.592 1.301A.708.708 0 0 0 8.026 5.5c2.816-.804 6.44-1.246 10.204-1.246 2.725 0 5.409.234 7.762.677a.708.708 0 0 0 .261-1.391zM8.526 15.462a.679.679 0 0 0-.193-.363.704.704 0 0 0-.639-.192.67.67 0 0 0-.254.104.659.659 0 0 0-.261.318.701.701 0 0 0 .001.541.748.748 0 0 0 .153.23.704.704 0 0 0 .5.207.728.728 0 0 0 .393-.119.715.715 0 0 0 .303-.726z"/></symbol><symbol id="icon-credit-card" viewBox="0 0 42 32"><path d="M36.148 32H5.592C2.508 32 0 29.502 0 26.435V5.565C0 2.496 2.508 0 5.592 0h30.555c3.082 0 5.592 2.496 5.592 5.565v20.87C41.74 29.503 39.231 32 36.148 32zM5.592 1.59c-2.203 0-3.994 1.782-3.994 3.975v20.87c0 2.192 1.791 3.975 3.994 3.975h30.555c2.202 0 3.994-1.783 3.994-3.975V5.565c0-2.193-1.792-3.975-3.994-3.975H5.592zm23.213 3.085c1.993 0 3.609 1.607 3.609 3.592s-1.615 3.593-3.609 3.593-3.609-1.608-3.609-3.593 1.616-3.592 3.609-3.592zm5.032 0c1.993 0 3.61 1.607 3.61 3.592s-1.616 3.593-3.61 3.593c-1.994 0-3.609-1.608-3.609-3.593s1.616-3.592 3.609-3.592zM4.294 22.725h6.654v2.385H4.294v-2.385zm8.833 0h6.654v2.385h-6.654v-2.385zm8.831 0h6.656v2.385h-6.656v-2.385zm8.832 0h6.656v2.385H30.79v-2.385zM4.294 4.675h12.578V7.06H4.294V4.675zm0 4.733h6.655v2.385H4.294V9.408z"/></symbol><symbol id="icon-mail" viewBox="0 0 49 32"><path fill="#f1cdb3" style="fill:var(--color1,#f1cdb3)" d="M48.388 0H.843C.619 0 .405.09.247.251S0 .629 0 .856v30.289c0 .227.089.445.247.605s.373.251.596.251h47.545c.224 0 .438-.09.596-.251s.247-.378.247-.605V.856c0-.227-.089-.445-.247-.605S48.611 0 48.388 0zm-8.293 18.502c.132.607.268 1.234.091 1.545-.19.334-.806.528-1.401.716-.47.148-.955.301-1.388.555-.418.245-.78.589-1.129.922-.481.458-.936.891-1.347.891s-.866-.433-1.347-.891c-.35-.333-.711-.677-1.129-.922-.433-.254-.918-.407-1.388-.555-.595-.188-1.21-.382-1.401-.716-.177-.311-.041-.938.091-1.545.108-.498.22-1.013.22-1.54s-.112-1.042-.22-1.54c-.132-.607-.268-1.234-.091-1.545.19-.334.806-.528 1.401-.716.47-.148.955-.301 1.388-.555.418-.246.78-.589 1.129-.922.481-.458.936-.891 1.347-.891s.866.433 1.347.891c.35.333.711.677 1.129.922.433.254.918.407 1.388.555.595.188 1.21.382 1.401.716.177.311.041.938-.091 1.545-.108.498-.22 1.013-.22 1.54s.112 1.042.22 1.54zm-2.437-7.843c-.078-.072-.156-.147-.237-.223-.634-.603-1.422-1.354-2.5-1.354s-1.866.75-2.5 1.354c-.293.279-.57.542-.82.689-.269.158-.645.277-1.044.402-.862.272-1.839.58-2.36 1.493-.506.887-.288 1.888-.096 2.77.093.427.18.831.18 1.171s-.088.744-.18 1.171c-.167.766-.351 1.62-.068 2.412l-3.419 3.512L2.86 1.71h43.508l-8.711 8.948zM14.401 16 1.686 29.06V2.939L14.401 16zm1.185 1.217 8.429 8.659a.843.843 0 0 0 .925.188.847.847 0 0 0 .275-.188l3.935-4.042c.443.258.942.416 1.408.563.398.126.775.244 1.044.402.25.147.527.411.82.689.634.603 1.422 1.354 2.5 1.354s1.866-.751 2.5-1.354c.293-.279.57-.542.82-.689.163-.096.366-.177.589-.254l7.538 7.743H2.86l12.725-13.071zm24.988 4.684c.425-.226.807-.533 1.072-.997.506-.887.288-1.888.096-2.77-.093-.427-.18-.831-.18-1.171s.088-.744.18-1.171c.192-.883.41-1.883-.096-2.77-.52-.913-1.497-1.221-2.36-1.493l-.079-.025 8.337-8.565v26.123l-6.971-7.16z"/><path fill="#f1cdb3" style="fill:var(--color1,#f1cdb3)" d="M34.922 12.606c-2.367 0-4.292 1.954-4.292 4.356s1.926 4.356 4.292 4.356 4.292-1.954 4.292-4.356-1.926-4.356-4.292-4.356zm0 7.002c-1.437 0-2.606-1.187-2.606-2.645s1.169-2.645 2.606-2.645c1.437 0 2.606 1.187 2.606 2.645s-1.169 2.645-2.606 2.645z"/></symbol><symbol id="icon-medicines" viewBox="0 0 32 32"><path fill="#f1cdb3" style="fill:var(--color1,#f1cdb3)" d="M31.817 8.479 23.521.183a.625.625 0 0 0-.884 0l-2.209 2.209a.625.625 0 0 0 0 .884l2.625 2.625-2.485 2.485-3.825-3.825a.625.625 0 0 0-.884 0l-2.538 2.538a.625.625 0 0 0 0 .884l.806.806L3.768 19.148a2.444 2.444 0 0 0 0 3.453l.795.795-1.458 1.458a.617.617 0 0 0-.183.442.633.633 0 0 0 .183.442l1.136 1.136-4.058 4.058a.625.625 0 0 0 .884.884l4.059-4.059 1.136 1.136a.625.625 0 0 0 .884 0l1.458-1.458.795.795c.461.461 1.074.715 1.726.715s1.265-.254 1.726-.715L23.21 17.871l.806.806a.635.635 0 0 0 .442.183c.16 0 .32-.061.442-.183l2.538-2.538a.625.625 0 0 0 0-.884l-3.825-3.825 2.485-2.485 2.624 2.624a.635.635 0 0 0 .442.183c.16 0 .32-.061.442-.183l2.209-2.209a.625.625 0 0 0 0-.884zm-18.625 3.012 2.892 2.892a.635.635 0 0 0 .442.183.625.625 0 0 0 .442-1.067l-2.892-2.892.935-.935 5.381 5.381-2.858 2.858-5.381-5.381 1.04-1.04zM6.704 27.569l-2.273-2.273 1.016-1.016 2.273 2.273-1.016 1.016zm5.264-.221a1.193 1.193 0 0 1-1.685 0l-5.631-5.631a1.192 1.192 0 0 1 0-1.685l.89-.89 1.539 1.539a.623.623 0 0 0 .884 0 .625.625 0 0 0 0-.884l-1.539-1.539 1.029-1.029 2.892 2.892a.623.623 0 0 0 .884 0 .625.625 0 0 0 0-.884l-2.892-2.892 1.029-1.029 1.539 1.539a.623.623 0 0 0 .884 0 .625.625 0 0 0 0-.884l-1.539-1.539 1.017-1.017 5.381 5.381-4.064 4.064a.625.625 0 0 0 .884.884l4.064-4.064 1.052 1.052-6.616 6.617zm7.501-7.501-1.052-1.052 2.858-2.858 1.052 1.052-2.858 2.858zm6.644-4.148-1.654 1.654-9.812-9.812 1.654-1.654 9.812 9.812zm-3.383-5.15L21.451 9.27l2.485-2.485 1.279 1.279-2.485 2.485zm6.436-.302-7.412-7.412 1.325-1.325 7.412 7.412-1.325 1.325z"/><path fill="#f1cdb3" style="fill:var(--color1,#f1cdb3)" d="M11.902 24.918a.694.694 0 0 0-.093-.225.646.646 0 0 0-.281-.231.608.608 0 0 0-.478 0 .623.623 0 0 0-.339.339.608.608 0 0 0 0 .478.588.588 0 0 0 .136.202.635.635 0 0 0 .442.183.632.632 0 0 0 .442-.183.646.646 0 0 0 .171-.319.562.562 0 0 0 0-.244z"/></symbol><symbol id="icon-phone" viewBox="0 0 40 32"><path fill="#f1cdb3" style="fill:var(--color1,#f1cdb3)" d="M39.946 8.895 37.51 2.904a.717.717 0 0 0-.472-.419l-2.928-.778C25.538-.57 14.46-.57 5.888 1.707l-2.928.778c-.105.028-.202.08-.284.153s-.146.164-.188.266L.052 8.895a.734.734 0 0 0-.013.518l.974 2.796c.057.162.168.299.315.384s.318.113.483.079l9.256-1.897c.139-.028.267-.1.366-.204s.165-.237.188-.381l.802-4.864c4.412-1.136 10.739-1.136 15.151 0l.802 4.864c.024.143.089.276.188.381s.226.176.366.204l9.256 1.897c.165.034.336.006.483-.079s.258-.221.315-.383l.974-2.796a.734.734 0 0 0-.013-.518zM2.132 11.141l-.5-1.435 8.965-1.92-.276 1.677-8.189 1.678zm9.49-7.084c-.129.036-.245.11-.334.211s-.149.227-.171.362l-.269 1.635L1.86 8.19l1.79-4.403 2.591-.688c8.358-2.22 19.16-2.221 27.518 0l2.591.688 1.79 4.403-8.988-1.925-.269-1.635c-.022-.135-.081-.26-.171-.362s-.205-.175-.334-.211c-4.776-1.351-11.98-1.351-16.756 0zm26.246 7.084-8.189-1.678-.276-1.677 8.965 1.92-.5 1.435z"/><path fill="#f1cdb3" style="fill:var(--color1,#f1cdb3)" d="M33.29 13.119a.719.719 0 0 0-.538-.547l-4.775-1.046-.601-4.012c-.025-.17-.109-.324-.236-.436s-.289-.173-.457-.173h-1.869v-.941c0-.397-.314-.718-.701-.718s-.701.322-.701.718v.941h-6.824v-.941c0-.397-.314-.718-.701-.718s-.701.322-.701.718v.941h-1.87c-.168 0-.329.061-.457.173s-.211.266-.236.436l-.601 4.012-4.774 1.046c-.131.029-.252.096-.347.193s-.162.22-.191.354L3.468 28.088a.738.738 0 0 0-.017.156v3.038c0 .191.074.373.205.508s.31.21.496.21h31.695c.186 0 .364-.076.496-.21s.205-.317.205-.508v-3.038a.745.745 0 0 0-.017-.156l-3.242-14.969zm-25.309.761 4.807-1.053c.139-.03.266-.104.364-.21s.161-.24.183-.384l.583-3.892h12.164l.583 3.892c.022.144.085.278.183.384s.224.179.363.21l4.807 1.053 2.955 13.645H5.025L7.98 13.88zm3.816 15.082-.903 1.601H9.828l.903-1.601h1.066zm1.619 0h15.256l-.903 1.601H12.513l.903-1.601zm-8.563 0h4.258l-.903 1.601H4.853v-1.601zm24.536 1.601.903-1.601h4.855v1.601h-5.758z"/><path fill="#f1cdb3" style="fill:var(--color1,#f1cdb3)" d="M20 26.161c4.149 0 7.525-3.459 7.525-7.711S24.149 10.739 20 10.739c-4.149 0-7.525 3.459-7.525 7.711s3.376 7.711 7.525 7.711zm0-13.985c3.376 0 6.123 2.814 6.123 6.274S23.376 24.724 20 24.724c-3.376 0-6.123-2.814-6.123-6.274s2.747-6.274 6.123-6.274z"/><path fill="#f1cdb3" style="fill:var(--color1,#f1cdb3)" d="M20 21.185c1.472 0 2.669-1.227 2.669-2.735S21.472 15.715 20 15.715s-2.669 1.227-2.669 2.735 1.197 2.735 2.669 2.735zm0-4.034c.699 0 1.267.582 1.267 1.298s-.568 1.298-1.267 1.298-1.267-.582-1.267-1.298.568-1.298 1.267-1.298z"/></symbol><symbol id="icon-pin" viewBox="0 0 22 32"><path fill="#f1cdb3" style="fill:var(--color1,#f1cdb3)" d="M11 0C4.935 0 0 4.785 0 10.667c0 1.766.455 3.516 1.321 5.069l9.078 15.921c.121.212.351.344.601.344s.481-.131.602-.344l9.081-15.926A10.428 10.428 0 0 0 22 10.667C22 4.786 17.065 0 11 0zm8.476 15.091L11 29.956 2.527 15.097a9.122 9.122 0 0 1-1.152-4.43c0-5.146 4.318-9.333 9.625-9.333s9.625 4.187 9.625 9.333a9.112 9.112 0 0 1-1.149 4.424z"/><path fill="#f1cdb3" style="fill:var(--color1,#f1cdb3)" d="M11 5.333c-3.033 0-5.5 2.393-5.5 5.333s2.467 5.333 5.5 5.333 5.5-2.393 5.5-5.333-2.467-5.333-5.5-5.333zm0 9.334c-2.275 0-4.125-1.794-4.125-4s1.85-4 4.125-4 4.125 1.794 4.125 4-1.85 4-4.125 4z"/></symbol><symbol id="icon-shampoos" viewBox="0 0 17 32"><path fill="#f1cdb3" style="fill:var(--color1,#f1cdb3)" d="M12.87 9.163V6.26a.696.696 0 0 0-.696-.696h-.522V.694a.696.696 0 0 0-.696-.696H6.434a.696.696 0 0 0-.696.696v4.87h-.522a.696.696 0 0 0-.696.696v2.903a6.629 6.629 0 0 0-4.174 6.15v15.991c0 .384.311.696.696.696h15.304a.696.696 0 0 0 .696-.696V15.313a6.629 6.629 0 0 0-4.174-6.15zM7.13 1.391h3.13v4.174H7.13V1.391zM5.913 6.956h5.565v1.739H5.913V6.956zm9.739 23.653H1.739V15.313a5.231 5.231 0 0 1 5.226-5.226h3.461a5.231 5.231 0 0 1 5.226 5.226v15.296z"/><path fill="#f1cdb3" style="fill:var(--color1,#f1cdb3)" d="M13.217 14.609H4.174a.696.696 0 0 0-.696.696v12.87c0 .384.311.696.696.696h9.043a.696.696 0 0 0 .696-.696v-4.372a.696.696 0 1 0-1.392 0v3.676H4.869V16.001h7.652v2.202a.696.696 0 1 0 1.392 0v-2.898a.696.696 0 0 0-.696-.696z"/><path fill="#f1cdb3" style="fill:var(--color1,#f1cdb3)" d="M13.217 20.301a.696.696 0 0 0-.696.696v.07a.696.696 0 1 0 1.392 0v-.07a.696.696 0 0 0-.696-.696zM7.996 21.947c-1.151 0-2.087.936-2.087 2.087s.936 2.087 2.087 2.087 2.087-.936 2.087-2.087a2.09 2.09 0 0 0-2.087-2.087zm0 2.783a.697.697 0 1 1 .001-1.393.697.697 0 0 1-.001 1.393zM11.651 19.192c0-1.151-.936-2.087-2.087-2.087s-2.087.936-2.087 2.087c0 1.151.936 2.087 2.087 2.087s2.087-.936 2.087-2.087zm-2.087.695a.697.697 0 1 1 .001-1.393.697.697 0 0 1-.001 1.393z"/></symbol><symbol id="icon-sleeping-area" viewBox="0 0 30 32"><path fill="#f1cdb3" style="fill:var(--color1,#f1cdb3)" d="M29.841 10.649 15.456.121a.627.627 0 0 0-.738 0L.333 10.649a.624.624 0 0 0-.135.873l1.88 2.569a.63.63 0 0 0 .653.239.605.605 0 0 0 .221-.103l.567-.415v17.564c0 .345.28.625.625.625h21.92c.345 0 .625-.28.625-.625v-17.54l.534.391a.621.621 0 0 0 .874-.136l1.88-2.569a.625.625 0 0 0-.135-.873zm-4.402 17.663H10.652a.625.625 0 0 0 0 1.25h14.787v1.188H4.769V13.389h14.636a.625.625 0 0 0 0-1.25H5.803l9.284-6.795 10.351 7.576v15.392zm2.018-15.463L15.456 4.066a.627.627 0 0 0-.738 0L2.717 12.849l-1.142-1.56L15.087 1.4l13.512 9.889-1.142 1.56z"/><path fill="#f1cdb3" style="fill:var(--color1,#f1cdb3)" d="M22.27 12.642c-.008-.04-.021-.079-.036-.118s-.035-.074-.058-.108a.625.625 0 1 0 .094.226zM9.013 28.815a.608.608 0 0 0-.094-.225.658.658 0 0 0-.172-.173.635.635 0 0 0-.469-.093.63.63 0 0 0-.502.614.628.628 0 0 0 .625.627.632.632 0 0 0 .519-.279.64.64 0 0 0 .094-.469zM22.851 16.306a1.96 1.96 0 0 0-.585-1.401 1.99 1.99 0 0 0-1.406-.572 2.005 2.005 0 0 0-.487.066 21.53 21.53 0 0 0-3.381 1.172 8.25 8.25 0 0 0-3.808-.001 21.688 21.688 0 0 0-3.397-1.176c-.615-.157-1.25-.016-1.74.387s-.753.997-.719 1.631a21.806 21.806 0 0 0 .513 3.664 6.806 6.806 0 0 0-.402 1.538c-.03.22-.046.441-.046.663 0 2.798 2.44 5.074 5.439 5.074h4.514c1.644 0 3.182-.684 4.219-1.876.951-1.092 1.368-2.464 1.173-3.862a6.896 6.896 0 0 0-.402-1.537 21.535 21.535 0 0 0 .515-3.772zm-1.252.039v.002a20.29 20.29 0 0 1-.526 3.637.619.619 0 0 0 .033.389c.095.224.176.454.242.689.066.238.116.48.151.725.144 1.035-.168 2.054-.878 2.869-.8.919-1.994 1.446-3.277 1.446H12.83c-2.31 0-4.189-1.715-4.189-3.824 0-.162.012-.327.034-.492.068-.486.2-.961.392-1.413a.629.629 0 0 0 .033-.39 20.058 20.058 0 0 1-.526-3.637.716.716 0 0 1 .264-.598.719.719 0 0 1 .626-.145l.012.003c1.162.297 2.296.696 3.388 1.192.132.06.281.073.421.035a7.071 7.071 0 0 1 3.601-.001c.14.037.288.025.42-.035a20.475 20.475 0 0 1 3.4-1.196.686.686 0 0 1 .163-.02h.008a.728.728 0 0 1 .721.722l-.001.039z"/><path fill="#f1cdb3" style="fill:var(--color1,#f1cdb3)" d="M16.259 23.235a.547.547 0 0 1-.547-.547.625.625 0 0 0-1.25 0v.023a.547.547 0 0 1-.547.547.625.625 0 0 0 0 1.25c.454 0 .869-.169 1.185-.448a1.79 1.79 0 0 0 1.159.425.625.625 0 0 0 0-1.25zM12.902 20.355l-.928-.425a.615.615 0 0 0-.52 0l-.928.425a.624.624 0 1 0 .521 1.137l.668-.306.668.306a.625.625 0 0 0 .521-1.136zM19.649 20.355l-.928-.425a.615.615 0 0 0-.52 0l-.928.425a.624.624 0 1 0 .52 1.136l.668-.306.668.306a.626.626 0 0 0 .521-1.136z"/></symbol><symbol id="icon-toys" viewBox="0 0 32 32"><path fill="#f1cdb3" style="fill:var(--color1,#f1cdb3)" d="M27.314 4.686C24.292 1.664 20.274 0 16 0S7.708 1.664 4.686 4.686C1.664 7.708 0 11.726 0 16s1.664 8.292 4.686 11.314C7.708 30.336 11.726 32 16 32s8.292-1.664 11.314-4.686C30.336 24.292 32 20.274 32 16s-1.664-8.292-4.686-11.314zM5.67 26.33a14.497 14.497 0 0 1-4.244-9.325c.382.013.773.049 1.167.108 2.828.42 5.675 1.94 8.014 4.28s3.86 5.186 4.28 8.015c.058.384.093.772.107 1.16a14.545 14.545 0 0 1-9.325-4.237zm10.717 4.266a11.623 11.623 0 0 0-.124-1.394c-.464-3.121-2.123-6.245-4.672-8.794s-5.672-4.209-8.794-4.672a11.739 11.739 0 0 0-1.401-.124c.012-.467.046-.931.101-1.389.496.016 1 .062 1.504.137 3.414.507 6.814 2.306 9.573 5.065s4.558 6.159 5.065 9.573c.074.496.119.995.136 1.496-.461.056-.925.09-1.389.102zm9.943-4.266a14.526 14.526 0 0 1-7.17 3.929c-.023-.49-.071-.979-.144-1.465-.551-3.708-2.489-7.384-5.457-10.353s-6.645-4.906-10.353-5.457a14.501 14.501 0 0 0-1.471-.144l-.004.003A14.51 14.51 0 0 1 5.669 5.67a14.52 14.52 0 0 1 6.828-3.849c.017.575.068 1.148.153 1.717.551 3.708 2.489 7.384 5.457 10.353s6.645 4.906 10.353 5.457c.571.085 1.146.136 1.723.154l.006-.01a14.519 14.519 0 0 1-3.861 6.839zm4.127-8.215a13.236 13.236 0 0 1-1.791-.143c-3.415-.507-6.814-2.306-9.573-5.065s-4.558-6.159-5.065-9.573a13.12 13.12 0 0 1-.143-1.783c.462-.067.927-.112 1.393-.135-.001.558.041 1.132.127 1.713.464 3.121 2.123 6.245 4.672 8.794a.695.695 0 1 0 .984-.984c-2.34-2.34-3.86-5.186-4.28-8.014a10.226 10.226 0 0 1-.113-1.511A14.551 14.551 0 0 1 26.33 5.67a14.503 14.503 0 0 1 4.263 9.662 10.165 10.165 0 0 1-1.518-.113.696.696 0 0 0-.204 1.376 11.6 11.6 0 0 0 1.694.128h.027c-.023.466-.067.93-.134 1.392z"/><path fill="#f1cdb3" style="fill:var(--color1,#f1cdb3)" d="M24.614 13.747a.7.7 0 0 0-.696.696.7.7 0 0 0 .696.696.7.7 0 0 0 .696-.696.7.7 0 0 0-.696-.696z"/></symbol><symbol id="icon-transportation" viewBox="0 0 33 32"><path fill="#f1cdb3" style="fill:var(--color1,#f1cdb3)" d="M29.869 6.779h-3.746v-.108c0-1.938-1.576-3.514-3.514-3.514s-3.514 1.576-3.514 3.514v.108h-4.399a2.63 2.63 0 0 0-2.627 2.627v2.968H8.13c-.94 0-1.775.563-2.128 1.434l-.014.039-2.273 6.884c-.021.012-.047.027-.08.043-.13.065-.373.164-.791.266a3.039 3.039 0 0 0-2.325 2.962v3.252c0 1.089.886 1.975 1.975 1.975H5.28c.294 1.576 1.679 2.772 3.338 2.772s3.044-1.197 3.338-2.772h9.826c.294 1.575 1.679 2.772 3.338 2.772s3.044-1.196 3.338-2.772h1.769c1.354 0 2.264-.91 2.264-2.264V10.711c0-3.547-1.837-3.93-2.627-3.93zm-9.523-.107c0-1.248 1.016-2.264 2.264-2.264s2.264 1.016 2.264 2.264v.108h-4.528v-.108zM7.169 14.26a1.039 1.039 0 0 1 .962-.637h3.939v7.084H5.04l2.129-6.447zM8.62 30.75a2.15 2.15 0 0 1-2.147-2.147l.001-.044.002-.067.001-.01a2.15 2.15 0 0 1 2.143-2.026c1.034 0 1.9.735 2.102 1.711l.001.004c.007.033.013.066.018.1l.001.006a.88.88 0 0 1 .009.074l.004.034.004.058.004.051a.92.92 0 0 1 .001.053l.001.058a2.15 2.15 0 0 1-2.147 2.147zm16.504 0a2.15 2.15 0 0 1-2.145-2.23l.001-.027.005-.061.004-.048.003-.02a2.04 2.04 0 0 1 .03-.193l.001-.006a2.15 2.15 0 0 1 2.937-1.54 2.15 2.15 0 0 1 1.312 1.978 2.15 2.15 0 0 1-2.147 2.147zm5.107-2.772h-1.768l-.007-.033a4.327 4.327 0 0 0-.051-.219l-.027-.095-.018-.058-.033-.098-.018-.052-.044-.111-.014-.035a3.145 3.145 0 0 0-.065-.144l-.009-.017-.062-.121-.024-.044a2.752 2.752 0 0 0-.053-.092l-.03-.049a3.791 3.791 0 0 0-.179-.26l-.06-.077-.037-.045a2.53 2.53 0 0 0-.102-.116l-.088-.092-.019-.02a3.812 3.812 0 0 0-.113-.108l-.025-.022a3.512 3.512 0 0 0-.092-.08l-.041-.033a5.586 5.586 0 0 0-.08-.063l-.048-.035a3.186 3.186 0 0 0-.262-.173l-.084-.048a1.353 1.353 0 0 0-.052-.029l-.093-.048-.046-.023a4.665 4.665 0 0 0-.124-.056l-.019-.009a3.693 3.693 0 0 0-.146-.058l-.043-.015c-.035-.012-.071-.025-.107-.036l-.057-.017-.096-.027a2.981 2.981 0 0 0-.38-.078l-.099-.013-.063-.007-.11-.008-.054-.004a3.028 3.028 0 0 0-.33 0l-.054.004-.11.008-.063.007-.099.013-.065.01a4.494 4.494 0 0 0-.253.052l-.063.016c-.032.008-.063.018-.095.027l-.058.017a4.304 4.304 0 0 0-.296.109l-.024.011a2.548 2.548 0 0 0-.258.125l-.054.03-.081.047a3.675 3.675 0 0 0-.186.12l-.075.053a1.682 1.682 0 0 0-.051.038c-.026.019-.051.04-.076.06l-.045.036-.085.074-.031.028c-.038.035-.075.07-.111.106l-.027.028c-.027.028-.054.055-.08.084a1.465 1.465 0 0 0-.038.043c-.021.024-.043.048-.063.073l-.04.049-.057.072a3.68 3.68 0 0 0-.178.258l-.033.054-.049.085-.028.05-.056.108-.015.03a2.571 2.571 0 0 0-.064.142l-.018.044a3.088 3.088 0 0 0-.04.102l-.02.058a2.48 2.48 0 0 0-.031.092l-.019.063a3.922 3.922 0 0 0-.042.155l-.021.091-.014.066-.007.031h-9.825l-.007-.032-.013-.064a3.493 3.493 0 0 0-.064-.249l-.019-.061a3.472 3.472 0 0 0-.032-.094l-.02-.056-.041-.104-.017-.043c-.02-.048-.042-.095-.064-.142a2.917 2.917 0 0 0-.182-.327l-.05-.078a4.513 4.513 0 0 0-.128-.18l-.057-.072-.04-.049-.063-.073-.039-.044-.079-.083-.028-.029a2.777 2.777 0 0 0-.228-.207l-.046-.037-.075-.059-.051-.038a3.443 3.443 0 0 0-.206-.139l-.055-.034-.081-.047c-.018-.01-.036-.021-.055-.03a3.766 3.766 0 0 0-.089-.046l-.05-.025-.117-.053a.272.272 0 0 0-.025-.011l-.146-.058-.046-.016a3.169 3.169 0 0 0-.162-.052l-.094-.027-.063-.016a3.128 3.128 0 0 0-.252-.052l-.065-.01-.099-.013-.063-.007-.11-.008-.054-.004a3.028 3.028 0 0 0-.33 0l-.054.004-.11.008-.063.007-.098.013-.066.01a4.058 4.058 0 0 0-.159.03l-.093.021-.063.016a1.659 1.659 0 0 0-.094.027l-.059.018a4.098 4.098 0 0 0-.102.035l-.047.016a3.633 3.633 0 0 0-.145.057l-.029.013a5.752 5.752 0 0 0-.114.052l-.052.026a1.8 1.8 0 0 0-.087.045l-.056.031-.079.046a2.94 2.94 0 0 0-.132.083l-.056.038-.073.052-.053.039a4.646 4.646 0 0 0-.073.057l-.048.039-.08.069-.037.032a3.607 3.607 0 0 0-.11.105l-.033.034c-.025.026-.05.051-.074.078a.92.92 0 0 0-.041.047c-.02.023-.041.046-.06.07l-.042.052-.055.069a2.884 2.884 0 0 0-.091.126l-.038.056-.048.075-.035.056-.047.082-.03.053-.052.102-.019.037-.064.14-.02.049a2.792 2.792 0 0 0-.038.097l-.021.06c-.01.03-.021.059-.03.089l-.02.065a2.949 2.949 0 0 0-.063.244l-.014.068c-.002.01-.005.02-.006.031H2.498a.726.726 0 0 1-.725-.725v-3.252a1.79 1.79 0 0 1 1.371-1.747c.356-.087.662-.186.912-.296h22.7a.625.625 0 0 0 0-1.25H13.323V9.408c0-.759.618-1.377 1.377-1.377h15.172c1.198 0 1.377 1.679 1.377 2.68v16.254c0 .883-.636 1.014-1.014 1.014z"/><path fill="#f1cdb3" style="fill:var(--color1,#f1cdb3)" d="M27.433 13.235c0-.82-.576-1.508-1.345-1.682a1.868 1.868 0 0 0-.526-1.492 1.962 1.962 0 0 0-1.4-.591 1.93 1.93 0 0 0-1.551.783 1.933 1.933 0 0 0-1.553-.783c-.52 0-1.026.213-1.39.584a1.883 1.883 0 0 0-.537 1.5 1.726 1.726 0 0 0-1.345 1.682c0 .694.413 1.293 1.005 1.566a2.96 2.96 0 0 0-.661 1.862 2.959 2.959 0 0 0 4.479 2.54c.459.275.984.42 1.519.42a2.964 2.964 0 0 0 2.96-2.96c0-.691-.244-1.345-.661-1.862a1.725 1.725 0 0 0 1.005-1.566zm-3.271-2.515c.189 0 .372.077.504.212a.627.627 0 0 1 .182.455.72.72 0 0 1-.693.703.683.683 0 0 1-.288-.063l-.033-.016a.679.679 0 0 1-.356-.604.69.69 0 0 1 .685-.687zm-3.602.209a.699.699 0 0 1 .498-.209.687.687 0 0 1 .632.954.7.7 0 0 1-.304.338l-.061.029a.646.646 0 0 1-.257.049.715.715 0 0 1-.695-.697.642.642 0 0 1 .187-.464zm-1.524 2.306a.475.475 0 0 1 .948 0 .455.455 0 0 1-.026.153 1.648 1.648 0 0 0-.045.095.475.475 0 0 1-.877-.248zm5.093 5.138c-.408 0-.802-.146-1.112-.412a.627.627 0 0 0-.814 0 1.712 1.712 0 1 1-1.701-2.904.625.625 0 0 0 .406-.523c.018-.172.061-.34.129-.499a1.73 1.73 0 0 0 .062-.13 1.71 1.71 0 0 1 .741-.724l.081-.038a1.72 1.72 0 0 1 1.377-.001c.027.013.053.026.081.038.317.158.576.412.742.724.019.044.04.087.062.13.068.159.111.327.129.499a.625.625 0 0 0 .406.523 1.712 1.712 0 0 1-.589 3.316zm1.58-4.664a.475.475 0 0 1-.403-.226l-.045-.095a.475.475 0 1 1 .922-.153.475.475 0 0 1-.474.474zM29.877 21.214a.608.608 0 0 0-.094-.225.588.588 0 0 0-.173-.173.635.635 0 0 0-.469-.093.64.64 0 0 0-.32.172.646.646 0 0 0-.135.203.623.623 0 0 0 .456.852.624.624 0 0 0 .244 0 .618.618 0 0 0 .504-.613.63.63 0 0 0-.012-.122zM22.61 0a.625.625 0 0 0-.625.625v1.046a.625.625 0 0 0 1.25 0V.625A.625.625 0 0 0 22.61 0zM19.977 2.43l-.872-.685a.615.615 0 0 0-.461-.129.64.64 0 0 0-.417.235.624.624 0 0 0 .106.877l.872.685a.622.622 0 0 0 .878-.106.625.625 0 0 0-.106-.878zM26.993 1.851a.625.625 0 0 0-.878-.106l-.872.685a.625.625 0 1 0 .772.984l.872-.685a.625.625 0 0 0 .106-.878z"/></symbol><symbol id="icon-vector" viewBox="0 0 26 32"><path fill="#f1cdb3" style="fill:var(--color1,#f1cdb3)" d="m25.012 13.599-3.069-8.4V.762A.762.762 0 0 0 21.181 0H4.419a.762.762 0 0 0-.762.762v4.437l-3.069 8.4a9.039 9.039 0 0 0-.55 3.106v12.669A2.629 2.629 0 0 0 2.664 32h20.272a2.629 2.629 0 0 0 2.626-2.626V16.705a9.015 9.015 0 0 0-.55-3.106zM5.181 1.524h15.238v3.048H5.181V1.524zm18.857 25.213H13.284a.762.762 0 1 0 0 1.524h10.754v1.113c0 .608-.494 1.102-1.102 1.102H2.664a1.103 1.103 0 0 1-1.102-1.102V16.705c0-.881.154-1.756.457-2.583l2.933-8.027h15.696l2.933 8.027a7.49 7.49 0 0 1 .457 2.583v10.032z"/><path fill="#f1cdb3" style="fill:var(--color1,#f1cdb3)" d="M15.796 18.029c-.249-1.561-1.605-2.759-3.235-2.759s-2.987 1.197-3.235 2.759a3.295 3.295 0 0 0-2.024 3.286 3.29 3.29 0 0 0 3.018 3.013 3.278 3.278 0 0 0 1.774-.367.99.99 0 0 1 .934 0 3.277 3.277 0 0 0 1.774.368 3.29 3.29 0 0 0 3.018-3.013 3.293 3.293 0 0 0-2.024-3.286zM16.3 21.2a1.758 1.758 0 0 1-1.612 1.609 1.748 1.748 0 0 1-.95-.196 2.518 2.518 0 0 0-2.356 0 1.746 1.746 0 0 1-.95.196A1.757 1.757 0 0 1 8.82 21.2a1.76 1.76 0 0 1 1.383-1.853.766.766 0 0 0 .605-.762l-.001-.039c0-.966.786-1.752 1.752-1.752s1.752.786 1.752 1.75l-.001.041a.764.764 0 0 0 .605.762 1.76 1.76 0 0 1 1.383 1.853zM12.56 13.747c1.365 0 2.476-1.111 2.476-2.476s-1.111-2.476-2.476-2.476-2.476 1.111-2.476 2.476 1.111 2.476 2.476 2.476zm0-3.429a.953.953 0 0 1 0 1.904.953.953 0 0 1 0-1.904zM9.703 14.217c0-1.365-1.111-2.476-2.476-2.476s-2.476 1.111-2.476 2.476 1.111 2.476 2.476 2.476 2.476-1.111 2.476-2.476zm-2.476.952a.953.953 0 0 1 0-1.904.953.953 0 0 1 0 1.904zM17.894 11.74c-1.365 0-2.476 1.111-2.476 2.476s1.111 2.476 2.476 2.476 2.476-1.111 2.476-2.476-1.111-2.476-2.476-2.476zm0 3.429a.953.953 0 0 1 0-1.904.953.953 0 0 1 0 1.904zM9.97 26.737h-.185a.762.762 0 1 0 0 1.524h.185a.762.762 0 1 0 0-1.524z"/></symbol><symbol id="icon-vitamins" viewBox="0 0 35 32"><path fill="#f1cdb3" style="fill:var(--color1,#f1cdb3)" d="M31.599 18.85c-1.905-.648-4.425-1.006-7.095-1.006-.167 0-.333.001-.499.004-2.484.042-4.81.393-6.597 1.001-.287.097-.569.206-.847.326V8.28c0-4.566-3.715-8.281-8.281-8.281S-.001 3.714-.001 8.28v14.949c0 4.566 3.715 8.281 8.281 8.281 1.448 0 2.874-.38 4.123-1.098a8.336 8.336 0 0 0 2.093-1.714c.435.611 1.296 1.257 2.911 1.806 1.905.648 4.425 1.006 7.095 1.006s5.19-.357 7.095-1.006c2.736-.931 3.31-2.137 3.31-2.985v-5.684c0-.848-.574-2.054-3.31-2.985zm-16.137 2.986c0-.025.003-.051.007-.076l.001-.007c.023-.123.097-.266.234-.421l.003-.003.067-.071.048-.047.02-.019a3.17 3.17 0 0 1 .411-.315l.008-.006c.373-.242.891-.493 1.588-.73 1.768-.602 4.131-.933 6.656-.933 2.3 0 4.465.276 6.169.78l-14.592 2.689c-.438-.323-.618-.621-.619-.84v-.001zm-.264-1.885c-.526.403-.819.812-.967 1.192a1.934 1.934 0 0 0-.129.582l-.001.018a1.5 1.5 0 0 0-.003.094v5.138a6.868 6.868 0 0 1-5.817 3.173 6.925 6.925 0 0 1-6.917-6.917v-6.793h1.364v3.682a.682.682 0 1 0 1.364 0v-3.682h11.107v3.514zm0-4.878H4.091V8.28c0-2.31 1.879-4.19 4.19-4.19s4.19 1.88 4.19 4.19a.682.682 0 1 0 1.364 0c0-3.062-2.491-5.553-5.553-5.553S2.729 5.218 2.729 8.28v6.793H1.365V8.28c0-3.814 3.103-6.917 6.917-6.917s6.917 3.103 6.917 6.917v6.793zm18.347 12.446c0 .407-.625 1.095-2.386 1.695-1.768.602-4.131.933-6.656.933s-4.888-.331-6.656-.933c-1.761-.599-2.386-1.287-2.386-1.695v-3.61c.478.318 1.111.628 1.946.912 1.905.648 4.425 1.006 7.095 1.006s5.19-.357 7.095-1.006c.836-.284 1.469-.595 1.946-.912v3.611zM31.16 23.53c-1.768.602-4.131.933-6.656.933-2.333 0-4.528-.284-6.243-.801l14.626-2.695c.467.334.658.644.658.869 0 .407-.625 1.095-2.386 1.695z"/><path fill="#f1cdb3" style="fill:var(--color1,#f1cdb3)" d="M3.891 22.343a.664.664 0 0 0-.222-.148.662.662 0 0 0-.521 0 .66.66 0 0 0-.221.148.654.654 0 0 0-.148.222.663.663 0 0 0-.039.394.631.631 0 0 0 .102.246.684.684 0 0 0 1.134-.001.669.669 0 0 0 .103-.246.687.687 0 0 0-.187-.616z"/></symbol></defs></svg>