<?xml version="1.0" standalone="no"?>
<!DOCTYPE svg PUBLIC "-//W3C//DTD SVG 20010904//EN"
 "http://www.w3.org/TR/2001/REC-SVG-20010904/DTD/svg10.dtd">
<svg version="1.0" xmlns="http://www.w3.org/2000/svg"
 width="512.000000pt" height="512.000000pt" viewBox="0 0 512.000000 512.000000"
 preserveAspectRatio="xMidYMid meet">
<metadata>
Created by potrace 1.14, written by Peter Selinger 2001-2017
</metadata>
<g transform="translate(0.000000,512.000000) scale(0.100000,-0.100000)"
fill="#000000" stroke="none">
<path d="M2036 5104 c-193 -46 -366 -221 -417 -421 -7 -29 -18 -53 -23 -54
-87 -6 -208 -61 -280 -128 -65 -60 -133 -186 -155 -290 -14 -63 -10 -216 5
-269 8 -25 14 -48 14 -52 0 -4 -185 -7 -412 -7 l-412 -1 -23 -26 -23 -27 0
-342 c0 -271 3 -355 15 -400 33 -126 134 -233 253 -268 l42 -12 0 -1174 0
-1173 -130 0 c-126 0 -132 -1 -155 -25 -25 -24 -25 -26 -25 -205 0 -179 0
-181 25 -205 l24 -25 1185 0 c884 0 1192 3 1211 12 14 6 28 22 31 35 7 27 -1
25 102 27 62 1 82 -1 82 -12 0 -7 11 -24 25 -37 l24 -25 871 0 871 0 24 25
c25 24 25 26 25 205 0 179 0 181 -25 205 -23 24 -29 25 -155 25 l-130 0 0 545
c0 300 1 546 2 548 6 9 -27 48 -50 59 -26 13 -27 15 -27 101 -1 76 1 87 16 87
10 0 27 12 38 26 21 26 21 36 21 505 0 415 2 479 15 479 33 0 133 58 178 102
28 28 62 77 80 116 l32 67 3 359 c4 395 2 410 -51 422 -17 3 -208 7 -424 7
-216 0 -393 0 -393 1 0 0 7 33 15 71 65 308 -111 612 -384 666 l-58 11 -13 51
c-37 149 -142 288 -273 361 -86 49 -146 66 -245 72 -136 7 -251 -29 -370 -118
l-53 -39 -37 28 c-70 54 -120 82 -183 103 -81 27 -221 34 -303 14z"/>
</g>
</svg>
