<svg aria-hidden="true" style="position: absolute; width: 0; height: 0; overflow: hidden;" version="1.1" xmlns="http://www.w3.org/2000/svg" xmlns:xlink="http://www.w3.org/1999/xlink">
<defs>
<symbol id="icon-dot" viewBox="0 0 32 32">
<path fill="#f1cdb3" style="fill: var(--color1, #f1cdb3)" d="M32 16c0 8.837-7.163 16-16 16s-16-7.163-16-16c0-8.837 7.163-16 16-16s16 7.163 16 16z"></path>
</symbol>
<symbol id="icon-close" viewBox="0 0 32 32">
<path d="M19.803 16l11.409-11.409c1.050-1.050 1.050-2.753 0-3.803s-2.753-1.050-3.803 0l-11.409 11.409-11.409-11.409c-1.050-1.050-2.753-1.050-3.803 0s-1.050 2.753 0 3.803l11.409 11.409-11.409 11.409c-1.050 1.050-1.050 2.753 0 3.803s2.753 1.050 3.803 0l11.409-11.409 11.409 11.409c1.050 1.050 2.753 1.050 3.803 0s1.050-2.753 0-3.803l-11.409-11.409z"></path>
</symbol>
<symbol id="icon-right-double" viewBox="0 0 73 32">
<path d="M29.107 17.71l-26.279 13.665v-3.892l21.847-11.392-21.847-11.364v-3.892l26.279 13.665v3.21zM70.041 17.71l-26.278 13.665v-3.892l21.846-11.392-21.846-11.364v-3.892l26.278 13.665v3.21z"></path>
</symbol>
<symbol id="icon-left-double" viewBox="0 0 73 32">
<path fill="#cdcdcd" style="fill: var(--color2, #cdcdcd)" d="M28.936 31.375l-26.278-13.665v-3.21l26.278-13.665v3.892l-21.847 11.364 21.847 11.392v3.892zM69.871 31.375l-26.278-13.665v-3.21l26.278-13.665v3.892l-21.847 11.364 21.847 11.392v3.892z"></path>
</symbol>
<symbol id="icon-right-one" viewBox="0 0 29 32">
<path d="M26.301 17.71l-26.278 13.665v-3.892l21.847-11.392-21.847-11.364v-3.892l26.278 13.665v3.21z"></path>
</symbol>
<symbol id="icon-left-one" viewBox="0 0 29 32">
<path fill="#cdcdcd" style="fill: var(--color2, #cdcdcd)" d="M29.040 31.375l-26.278-13.665v-3.21l26.278-13.665v3.892l-21.847 11.364 21.847 11.392v3.892z"></path>
</symbol>
<symbol id="icon-arrow-left" viewBox="0 0 75 32">
<path d="M74.667 10.667v10.667h-58.667v10.667l-16-16 16-16v10.667h58.667z"></path>
</symbol>
<symbol id="icon-arrow-right" viewBox="0 0 75 32">
<path d="M0 21.333v-10.667h58.667v-10.667l16 16-16 16v-10.667h-58.667z"></path>
</symbol>
<symbol id="icon-bowls-and-cups" viewBox="0 0 34 32">
<path fill="#f1cdb3" style="fill: var(--color1, #f1cdb3)" d="M33.676 21.252l-1.605-10.785c-0.026-3.132-1.927-6.036-5.226-7.976-2.733-1.607-6.285-2.491-10.002-2.491s-7.269 0.885-10.002 2.491c-3.299 1.94-5.2 4.844-5.226 7.976l-1.605 10.785c-0.006 0.037-0.008 0.075-0.008 0.113 0 3.171 2.113 6.108 5.798 8.057 3.017 1.596 6.939 2.475 11.044 2.475s8.027-0.879 11.044-2.475c3.685-1.949 5.798-4.886 5.798-8.057-0-0.038-0.003-0.075-0.008-0.113zM7.616 3.812c2.501-1.47 5.777-2.28 9.226-2.28s6.725 0.81 9.226 2.28c2.842 1.671 4.472 4.12 4.472 6.72s-1.63 5.049-4.472 6.72c-2.501 1.47-5.777 2.28-9.226 2.28s-6.725-0.81-9.226-2.28c-2.842-1.671-4.472-4.12-4.472-6.72s1.63-5.049 4.472-6.72zM27.169 28.068c-2.8 1.481-6.468 2.297-10.327 2.297s-7.527-0.816-10.327-2.297c-3.144-1.663-4.957-4.084-4.983-6.648l1.055-7.085c0.878 1.643 2.327 3.105 4.253 4.237 2.733 1.606 6.285 2.491 10.002 2.491s7.269-0.885 10.002-2.491c1.926-1.133 3.375-2.594 4.253-4.237l1.055 7.085c-0.026 2.565-1.838 4.985-4.983 6.648z"></path>
<path fill="#f1cdb3" style="fill: var(--color1, #f1cdb3)" d="M16.842 18c5.251 0 9.885-2.032 11.531-5.055 0.421-0.773 0.635-1.585 0.635-2.412 0-2.073-1.32-3.99-3.717-5.399-2.269-1.334-5.27-2.068-8.449-2.068s-6.18 0.735-8.449 2.068c-2.397 1.409-3.717 3.326-3.717 5.399 0 0.828 0.214 1.64 0.635 2.412 1.646 3.024 6.28 5.056 11.531 5.056zM16.842 16.468c-4.404 0-8.405-1.582-9.962-3.892 1.557-2.308 5.559-3.889 9.962-3.889s8.405 1.581 9.962 3.889c-1.556 2.309-5.557 3.892-9.962 3.892zM6.208 10.532c0-1.508 1.052-2.956 2.961-4.079 2.037-1.198 4.762-1.857 7.673-1.857s5.636 0.66 7.673 1.857c1.91 1.123 2.961 2.571 2.961 4.079 0 0.134-0.009 0.268-0.026 0.402-2.112-2.305-6.136-3.779-10.608-3.779s-8.496 1.474-10.608 3.779c-0.017-0.133-0.026-0.268-0.026-0.402z"></path>
<path fill="#f1cdb3" style="fill: var(--color1, #f1cdb3)" d="M16.842 22.327c-0.104 0-0.206 0.021-0.301 0.062s-0.181 0.1-0.253 0.175c-0.499 0.523-2.127 2.326-2.127 3.593 0 1.478 1.203 2.681 2.681 2.681s2.681-1.203 2.681-2.681c0-1.266-1.628-3.070-2.127-3.593-0.072-0.075-0.158-0.135-0.253-0.175s-0.198-0.062-0.301-0.062zM16.842 27.306c-0.634 0-1.149-0.515-1.149-1.149 0-0.34 0.535-1.162 1.149-1.907 0.614 0.746 1.149 1.567 1.149 1.907 0 0.634-0.515 1.149-1.149 1.149z"></path>
<path fill="#f1cdb3" style="fill: var(--color1, #f1cdb3)" d="M13.409 12.293h-0.236c-0.423 0-0.766 0.343-0.766 0.766s0.343 0.766 0.766 0.766h0.236c0.423 0 0.766-0.343 0.766-0.766s-0.343-0.766-0.766-0.766z"></path>
<path fill="#f1cdb3" style="fill: var(--color1, #f1cdb3)" d="M22.498 12.293h-5.464c-0.423 0-0.766 0.343-0.766 0.766s0.343 0.766 0.766 0.766h5.464c0.423 0 0.766-0.343 0.766-0.766s-0.343-0.766-0.766-0.766z"></path>
</symbol>
<symbol id="icon-collars-or-leashes" viewBox="0 0 36 32">
<path fill="#f1cdb3" style="fill: var(--color1, #f1cdb3)" d="M34.594 3.774c-0.941-0.757-2.269-1.431-3.946-2.002-3.359-1.143-7.811-1.773-12.536-1.773s-9.177 0.63-12.535 1.773c-1.677 0.571-3.005 1.244-3.946 2.002-1.083 0.871-1.632 1.833-1.632 2.857v7.919c0 1.024 0.549 1.986 1.632 2.857 0.941 0.757 2.269 1.431 3.946 2.002 3.191 1.086 7.368 1.708 11.828 1.768v2.839h-2.44c-0.27-1.428-1.528-2.512-3.033-2.512-1.702 0-3.087 1.385-3.087 3.087 0 0.74 0.263 1.441 0.727 1.99-0.47 0.556-0.728 1.262-0.727 1.99 0 1.702 1.385 3.087 3.087 3.087 1.506 0 2.763-1.083 3.033-2.512h6.295c0.27 1.428 1.528 2.512 3.033 2.512 1.702 0 3.087-1.385 3.087-3.087 0-0.74-0.263-1.441-0.727-1.99 0.47-0.556 0.728-1.262 0.727-1.99 0-1.702-1.385-3.087-3.087-3.087-1.506 0-2.763 1.083-3.033 2.512h-2.44v-2.839c4.46-0.060 8.637-0.682 11.828-1.768 1.677-0.571 3.004-1.244 3.946-2.002 1.083-0.871 1.632-1.832 1.632-2.857v-7.919c-0-1.024-0.549-1.986-1.632-2.857zM21.918 25.431c0.096 0 0.191-0.020 0.28-0.058s0.168-0.094 0.234-0.164c0.066-0.070 0.117-0.152 0.15-0.243s0.047-0.186 0.042-0.282c-0.002-0.031-0.003-0.062-0.003-0.093 0-0.922 0.75-1.672 1.672-1.672s1.672 0.75 1.672 1.672c0 0.565-0.283 1.088-0.757 1.399-0.098 0.064-0.179 0.152-0.234 0.255s-0.085 0.219-0.085 0.336c0 0.117 0.029 0.233 0.085 0.336s0.136 0.191 0.234 0.255c0.474 0.311 0.757 0.834 0.757 1.399 0 0.922-0.75 1.672-1.672 1.672s-1.672-0.75-1.672-1.672c0-0.031 0.001-0.062 0.003-0.093 0.005-0.096-0.009-0.192-0.042-0.283s-0.084-0.173-0.15-0.243c-0.066-0.070-0.146-0.126-0.234-0.164s-0.184-0.058-0.28-0.058h-7.61c-0.096 0-0.191 0.020-0.28 0.058s-0.168 0.094-0.234 0.164c-0.066 0.070-0.117 0.152-0.15 0.243s-0.047 0.186-0.042 0.282c0.002 0.031 0.003 0.062 0.003 0.093 0 0.922-0.75 1.672-1.672 1.672s-1.672-0.75-1.672-1.672c0-0.565 0.283-1.088 0.757-1.399 0.098-0.064 0.179-0.152 0.234-0.255s0.085-0.219 0.085-0.336c0-0.117-0.029-0.233-0.085-0.336s-0.136-0.191-0.234-0.255c-0.474-0.311-0.757-0.834-0.757-1.399 0-0.922 0.75-1.672 1.672-1.672s1.672 0.75 1.672 1.672c0 0.031-0.001 0.062-0.003 0.093-0.005 0.096 0.009 0.192 0.042 0.283s0.084 0.173 0.15 0.243c0.066 0.070 0.146 0.126 0.234 0.164s0.184 0.058 0.28 0.058h7.61zM18.113 19.767c-0.94 0-1.704-0.765-1.704-1.704s0.765-1.704 1.704-1.704c0.94 0 1.704 0.764 1.704 1.704s-0.764 1.704-1.704 1.704zM34.811 14.55c0 2.239-5.646 4.709-14.043 5.148 0.304-0.491 0.465-1.058 0.465-1.636 0-0.223-0.024-0.44-0.069-0.65 2.746-0.18 5.297-0.59 7.425-1.197 0.376-0.107 0.593-0.499 0.486-0.875s-0.499-0.593-0.875-0.486c-2.184 0.623-4.847 1.029-7.719 1.181-0.573-0.668-1.421-1.092-2.368-1.092-0.951 0-1.804 0.429-2.377 1.102-1.947-0.093-3.797-0.301-5.502-0.622-0.384-0.072-0.754 0.18-0.826 0.564s0.181 0.754 0.565 0.826c1.589 0.299 3.297 0.504 5.087 0.612-0.043 0.209-0.065 0.422-0.065 0.636-0.001 0.578 0.16 1.144 0.465 1.636-8.397-0.439-14.043-2.909-14.043-5.148v-5.244l0.010 0.008c0.068 0.059 0.137 0.117 0.207 0.174 0.095 0.076 0.191 0.149 0.289 0.22l0.002 0.001c0.053 0.038 0.107 0.077 0.161 0.115l0.024 0.017c0.052 0.035 0.104 0.071 0.157 0.106 0.011 0.007 0.022 0.014 0.033 0.021 0.054 0.035 0.108 0.070 0.164 0.105l0.024 0.015c0.836 0.517 1.871 0.987 3.091 1.403 3.359 1.143 7.811 1.773 12.536 1.773s9.177-0.63 12.536-1.773c1.221-0.415 2.256-0.886 3.092-1.403l0.024-0.015c0.056-0.035 0.11-0.070 0.164-0.105l0.033-0.021c0.053-0.035 0.106-0.070 0.157-0.106l0.025-0.017c0.055-0.038 0.109-0.076 0.161-0.115l0.002-0.001c0.098-0.071 0.194-0.144 0.289-0.22 0.070-0.056 0.139-0.114 0.207-0.174l0.010-0.008v5.244zM4.546 9.572c0.616-0.282 1.459-0.605 2.58-0.92 3.045-0.854 6.947-1.324 10.987-1.324s7.942 0.47 10.987 1.324c1.121 0.314 1.964 0.638 2.58 0.92-2.928 1.305-7.721 2.275-13.567 2.275s-10.639-0.97-13.567-2.275zM34.807 6.735c-0.003 0.041-0.008 0.082-0.015 0.123l-0.001 0.006c-0.008 0.043-0.017 0.087-0.029 0.129-0.008 0.031-0.017 0.061-0.027 0.092l-0.006 0.018c-0.016 0.045-0.033 0.089-0.052 0.133-0.008 0.017-0.016 0.034-0.024 0.051-0.016 0.034-0.033 0.068-0.052 0.102l-0.005 0.009c-0.294 0.531-0.85 0.996-1.402 1.359-0.733-0.422-1.908-0.961-3.712-1.467-3.166-0.888-7.203-1.376-11.369-1.376s-8.203 0.489-11.369 1.376c-1.804 0.506-2.979 1.045-3.712 1.467-0.552-0.363-1.108-0.828-1.402-1.359l-0.005-0.009c-0.019-0.034-0.036-0.068-0.052-0.102-0.008-0.017-0.016-0.034-0.024-0.051-0.006-0.014-0.012-0.029-0.018-0.043-0.012-0.030-0.024-0.059-0.034-0.089-0.002-0.006-0.004-0.012-0.006-0.018-0.013-0.039-0.024-0.078-0.034-0.117-0.009-0.034-0.016-0.069-0.022-0.104l-0.001-0.006c-0.007-0.041-0.012-0.082-0.015-0.123-0.003-0.035-0.004-0.069-0.005-0.104 0-2.467 6.858-5.216 16.698-5.216s16.698 2.749 16.698 5.216c0 0.035-0.002 0.069-0.004 0.104z"></path>
<path fill="#f1cdb3" style="fill: var(--color1, #f1cdb3)" d="M29.088 4.615c-0.028-0.137-0.095-0.263-0.193-0.362-0.033-0.033-0.069-0.062-0.108-0.088-0.077-0.051-0.164-0.087-0.255-0.105s-0.185-0.018-0.277 0c-0.045 0.009-0.089 0.023-0.132 0.040s-0.084 0.040-0.122 0.065c-0.039 0.025-0.075 0.055-0.108 0.088s-0.062 0.069-0.088 0.108c-0.051 0.077-0.087 0.164-0.105 0.255-0.009 0.046-0.013 0.092-0.013 0.138s0.004 0.093 0.013 0.139c0.018 0.091 0.054 0.177 0.105 0.255 0.026 0.038 0.055 0.074 0.088 0.108s0.069 0.062 0.108 0.088c0.038 0.025 0.079 0.047 0.122 0.065s0.087 0.031 0.132 0.040c0.046 0.009 0.093 0.014 0.139 0.014s0.093-0.005 0.138-0.014c0.045-0.009 0.090-0.023 0.132-0.040s0.083-0.040 0.122-0.065c0.038-0.026 0.075-0.055 0.108-0.088s0.062-0.069 0.088-0.108c0.051-0.077 0.087-0.164 0.105-0.255 0.009-0.046 0.014-0.092 0.014-0.139s-0.005-0.092-0.014-0.138z"></path>
<path fill="#f1cdb3" style="fill: var(--color1, #f1cdb3)" d="M26.254 3.538c-2.438-0.459-5.212-0.701-8.024-0.701-3.891 0-7.653 0.462-10.592 1.301-0.376 0.107-0.593 0.499-0.486 0.875 0.089 0.311 0.372 0.514 0.68 0.514 0.064 0 0.13-0.009 0.194-0.027 2.816-0.804 6.44-1.246 10.204-1.246 2.725 0 5.409 0.234 7.762 0.677 0.384 0.072 0.754-0.181 0.826-0.565s-0.181-0.754-0.565-0.826z"></path>
<path fill="#f1cdb3" style="fill: var(--color1, #f1cdb3)" d="M8.526 15.462c-0.009-0.045-0.023-0.090-0.040-0.133s-0.040-0.084-0.065-0.122c-0.026-0.039-0.055-0.075-0.088-0.108s-0.069-0.062-0.108-0.088c-0.038-0.025-0.079-0.047-0.122-0.064s-0.087-0.031-0.132-0.040c-0.091-0.018-0.185-0.018-0.277 0-0.045 0.008-0.090 0.023-0.132 0.040s-0.084 0.039-0.122 0.064c-0.039 0.026-0.075 0.056-0.108 0.088s-0.062 0.069-0.088 0.108c-0.025 0.038-0.047 0.079-0.065 0.122s-0.031 0.088-0.040 0.133c-0.009 0.045-0.014 0.092-0.014 0.138 0 0.093 0.019 0.185 0.055 0.27 0.018 0.043 0.040 0.084 0.065 0.122s0.055 0.075 0.088 0.108c0.033 0.033 0.069 0.062 0.108 0.088s0.079 0.047 0.122 0.065c0.043 0.018 0.087 0.032 0.132 0.040s0.092 0.014 0.138 0.014c0.046 0 0.093-0.005 0.139-0.014s0.090-0.022 0.132-0.040c0.043-0.017 0.084-0.039 0.122-0.065s0.075-0.055 0.108-0.088c0.066-0.066 0.118-0.144 0.154-0.23s0.054-0.178 0.054-0.27c0-0.046-0.004-0.093-0.013-0.138z"></path>
</symbol>
<symbol id="icon-credit-card" viewBox="0 0 42 32">
<path d="M36.148 32h-30.556c-3.084 0-5.592-2.498-5.592-5.565v-20.87c0-3.069 2.508-5.565 5.592-5.565h30.555c3.082 0 5.592 2.496 5.592 5.565v20.87c0.001 3.068-2.508 5.565-5.591 5.565zM5.592 1.59c-2.203 0-3.994 1.782-3.994 3.975v20.87c0 2.192 1.791 3.975 3.994 3.975h30.555c2.202 0 3.994-1.783 3.994-3.975v-20.87c0-2.193-1.792-3.975-3.994-3.975h-30.555zM28.805 4.675c1.993 0 3.609 1.607 3.609 3.592s-1.615 3.593-3.609 3.593c-1.994 0-3.609-1.608-3.609-3.593s1.616-3.592 3.609-3.592zM33.837 4.675c1.993 0 3.61 1.607 3.61 3.592s-1.616 3.593-3.61 3.593c-1.994 0-3.609-1.608-3.609-3.593s1.616-3.592 3.609-3.592zM4.294 22.725h6.654v2.385h-6.654v-2.385zM13.127 22.725h6.654v2.385h-6.654v-2.385zM21.958 22.725h6.656v2.385h-6.656v-2.385zM30.79 22.725h6.656v2.385h-6.656v-2.385zM4.294 4.675h12.578v2.385h-12.578v-2.385zM4.294 9.408h6.655v2.385h-6.655v-2.385z"></path>
</symbol>
<symbol id="icon-mail" viewBox="0 0 49 32">
<path fill="#f1cdb3" style="fill: var(--color1, #f1cdb3)" d="M48.388 0h-47.545c-0.224 0-0.438 0.090-0.596 0.251s-0.247 0.378-0.247 0.605v30.289c0 0.227 0.089 0.445 0.247 0.605s0.373 0.251 0.596 0.251h47.545c0.224 0 0.438-0.090 0.596-0.251s0.247-0.378 0.247-0.605v-30.289c0-0.227-0.089-0.445-0.247-0.605s-0.373-0.251-0.596-0.251zM40.095 18.502c0.132 0.607 0.268 1.234 0.091 1.545-0.19 0.334-0.806 0.528-1.401 0.716-0.47 0.148-0.955 0.301-1.388 0.555-0.418 0.245-0.78 0.589-1.129 0.922-0.481 0.458-0.936 0.891-1.347 0.891s-0.866-0.433-1.347-0.891c-0.35-0.333-0.711-0.677-1.129-0.922-0.433-0.254-0.918-0.407-1.388-0.555-0.595-0.188-1.21-0.382-1.401-0.716-0.177-0.311-0.041-0.938 0.091-1.545 0.108-0.498 0.22-1.013 0.22-1.54s-0.112-1.042-0.22-1.54c-0.132-0.607-0.268-1.234-0.091-1.545 0.19-0.334 0.806-0.528 1.401-0.716 0.47-0.148 0.955-0.301 1.388-0.555 0.418-0.246 0.78-0.589 1.129-0.922 0.481-0.458 0.936-0.891 1.347-0.891s0.866 0.433 1.347 0.891c0.35 0.333 0.711 0.677 1.129 0.922 0.433 0.254 0.918 0.407 1.388 0.555 0.595 0.188 1.21 0.382 1.401 0.716 0.177 0.311 0.041 0.938-0.091 1.545-0.108 0.498-0.22 1.013-0.22 1.54s0.112 1.042 0.22 1.54zM37.658 10.659c-0.078-0.072-0.156-0.147-0.237-0.223-0.634-0.603-1.422-1.354-2.5-1.354s-1.866 0.75-2.5 1.354c-0.293 0.279-0.57 0.542-0.82 0.689-0.269 0.158-0.645 0.277-1.044 0.402-0.862 0.272-1.839 0.58-2.36 1.493-0.506 0.887-0.288 1.888-0.096 2.77 0.093 0.427 0.18 0.831 0.18 1.171s-0.088 0.744-0.18 1.171c-0.167 0.766-0.351 1.62-0.068 2.412l-3.419 3.512-21.754-22.346h43.508l-8.711 8.948zM14.401 16l-12.715 13.060v-26.121l12.715 13.061zM15.586 17.217l8.429 8.659c0.078 0.081 0.172 0.145 0.275 0.188s0.213 0.066 0.325 0.066c0.111 0 0.222-0.023 0.325-0.066s0.196-0.108 0.275-0.188l3.935-4.042c0.443 0.258 0.942 0.416 1.408 0.563 0.398 0.126 0.775 0.244 1.044 0.402 0.25 0.147 0.527 0.411 0.82 0.689 0.634 0.603 1.422 1.354 2.5 1.354s1.866-0.751 2.5-1.354c0.293-0.279 0.57-0.542 0.82-0.689 0.163-0.096 0.366-0.177 0.589-0.254l7.538 7.743h-43.509l12.725-13.071zM40.574 21.901c0.425-0.226 0.807-0.533 1.072-0.997 0.506-0.887 0.288-1.888 0.096-2.77-0.093-0.427-0.18-0.831-0.18-1.171s0.088-0.744 0.18-1.171c0.192-0.883 0.41-1.883-0.096-2.77-0.52-0.913-1.497-1.221-2.36-1.493l-0.079-0.025 8.337-8.565v26.123l-6.971-7.16z"></path>
<path fill="#f1cdb3" style="fill: var(--color1, #f1cdb3)" d="M34.922 12.606c-2.367 0-4.292 1.954-4.292 4.356s1.926 4.356 4.292 4.356 4.292-1.954 4.292-4.356c0-2.402-1.926-4.356-4.292-4.356zM34.922 19.608c-1.437 0-2.606-1.187-2.606-2.645s1.169-2.645 2.606-2.645c1.437 0 2.606 1.187 2.606 2.645s-1.169 2.645-2.606 2.645z"></path>
</symbol>
<symbol id="icon-medicines" viewBox="0 0 32 32">
<path fill="#f1cdb3" style="fill: var(--color1, #f1cdb3)" d="M31.817 8.479l-8.296-8.296c-0.244-0.244-0.64-0.244-0.884 0l-2.209 2.209c-0.117 0.117-0.183 0.276-0.183 0.442s0.066 0.325 0.183 0.442l2.625 2.625-2.485 2.485-3.825-3.825c-0.244-0.244-0.64-0.244-0.884 0l-2.538 2.538c-0.117 0.117-0.183 0.276-0.183 0.442s0.066 0.325 0.183 0.442l0.806 0.806-10.359 10.359c-0.952 0.952-0.952 2.501 0 3.453l0.795 0.795-1.458 1.458c-0.058 0.058-0.104 0.127-0.135 0.203s-0.048 0.157-0.048 0.239c0 0.082 0.016 0.163 0.048 0.239s0.077 0.145 0.135 0.203l1.136 1.136-4.058 4.058c-0.244 0.244-0.244 0.64 0 0.884 0.122 0.122 0.282 0.183 0.442 0.183s0.32-0.061 0.442-0.183l4.059-4.059 1.136 1.136c0.117 0.117 0.276 0.183 0.442 0.183s0.325-0.066 0.442-0.183l1.458-1.458 0.795 0.795c0.461 0.461 1.074 0.715 1.726 0.715s1.265-0.254 1.726-0.715l10.359-10.359 0.806 0.806c0.058 0.058 0.127 0.104 0.203 0.136s0.157 0.048 0.239 0.047c0.16 0 0.32-0.061 0.442-0.183l2.538-2.538c0.117-0.117 0.183-0.276 0.183-0.442s-0.066-0.325-0.183-0.442l-3.825-3.825 2.485-2.485 2.624 2.624c0.058 0.058 0.127 0.104 0.203 0.136s0.157 0.048 0.239 0.047c0.16 0 0.32-0.061 0.442-0.183l2.209-2.209c0.244-0.244 0.244-0.64 0-0.884zM13.192 11.491l2.892 2.892c0.058 0.058 0.127 0.104 0.203 0.136s0.157 0.048 0.239 0.047c0.16 0 0.32-0.061 0.442-0.183 0.244-0.244 0.244-0.64 0-0.884l-2.892-2.892 0.935-0.935 5.381 5.381-2.858 2.858-5.381-5.381 1.040-1.040zM6.704 27.569l-2.273-2.273 1.016-1.016 2.273 2.273-1.016 1.016zM11.968 27.348c-0.464 0.464-1.22 0.465-1.685 0l-5.631-5.631c-0.465-0.465-0.465-1.221 0-1.685l0.89-0.89 1.539 1.539c0.122 0.122 0.282 0.183 0.442 0.183s0.32-0.061 0.442-0.183c0.244-0.244 0.244-0.64 0-0.884l-1.539-1.539 1.029-1.029 2.892 2.892c0.122 0.122 0.282 0.183 0.442 0.183s0.32-0.061 0.442-0.183c0.244-0.244 0.244-0.64 0-0.884l-2.892-2.892 1.029-1.029 1.539 1.539c0.122 0.122 0.282 0.183 0.442 0.183s0.32-0.061 0.442-0.183c0.244-0.244 0.244-0.64 0-0.884l-1.539-1.539 1.017-1.017 5.381 5.381-4.064 4.064c-0.244 0.244-0.244 0.64 0 0.884 0.122 0.122 0.282 0.183 0.442 0.183s0.32-0.061 0.442-0.183l4.064-4.064 1.052 1.052-6.616 6.617zM19.469 19.847l-1.052-1.052 2.858-2.858 1.052 1.052-2.858 2.858zM26.113 15.699l-1.654 1.654-9.812-9.812 1.654-1.654 9.812 9.812zM22.73 10.549l-1.279-1.279 2.485-2.485 1.279 1.279-2.485 2.485zM29.166 10.247l-7.412-7.412 1.325-1.325 7.412 7.412-1.325 1.325z"></path>
<path fill="#f1cdb3" style="fill: var(--color1, #f1cdb3)" d="M11.902 24.918c-0.007-0.040-0.020-0.079-0.036-0.117s-0.035-0.074-0.057-0.108c-0.023-0.034-0.049-0.066-0.078-0.095s-0.061-0.055-0.095-0.078c-0.034-0.023-0.070-0.042-0.108-0.058s-0.077-0.028-0.117-0.036c-0.080-0.016-0.163-0.016-0.244 0-0.040 0.008-0.079 0.020-0.117 0.036s-0.074 0.035-0.108 0.058c-0.034 0.023-0.066 0.049-0.095 0.078s-0.055 0.061-0.078 0.095c-0.023 0.034-0.042 0.070-0.058 0.108s-0.028 0.077-0.036 0.117c-0.008 0.040-0.012 0.081-0.012 0.122s0.004 0.082 0.012 0.122c0.008 0.039 0.020 0.079 0.036 0.117s0.035 0.074 0.058 0.107c0.022 0.034 0.049 0.066 0.078 0.095 0.058 0.058 0.127 0.104 0.203 0.136s0.157 0.048 0.239 0.047c0.082 0 0.163-0.016 0.239-0.047s0.145-0.077 0.203-0.136c0.029-0.029 0.055-0.061 0.078-0.095s0.042-0.070 0.057-0.107c0.016-0.038 0.028-0.078 0.036-0.117 0.008-0.041 0.013-0.082 0.013-0.122s-0.004-0.082-0.013-0.122z"></path>
</symbol>
<symbol id="icon-phone" viewBox="0 0 40 32">
<path fill="#f1cdb3" style="fill: var(--color1, #f1cdb3)" d="M39.946 8.895l-2.436-5.991c-0.042-0.102-0.106-0.194-0.188-0.266s-0.179-0.125-0.284-0.153l-2.928-0.778c-8.572-2.277-19.65-2.277-28.222 0l-2.928 0.778c-0.105 0.028-0.202 0.080-0.284 0.153s-0.146 0.164-0.188 0.266l-2.436 5.991c-0.067 0.165-0.072 0.35-0.013 0.518l0.974 2.796c0.057 0.162 0.168 0.299 0.315 0.384s0.318 0.113 0.483 0.079l9.256-1.897c0.139-0.028 0.267-0.1 0.366-0.204s0.165-0.237 0.188-0.381l0.802-4.864c4.412-1.136 10.739-1.136 15.151 0l0.802 4.864c0.024 0.143 0.089 0.276 0.188 0.381s0.226 0.176 0.366 0.204l9.256 1.897c0.165 0.034 0.336 0.006 0.483-0.079s0.258-0.221 0.315-0.383l0.974-2.796c0.059-0.168 0.054-0.353-0.013-0.518zM2.132 11.141l-0.5-1.435 8.965-1.92-0.276 1.677-8.189 1.678zM11.622 4.057c-0.129 0.036-0.245 0.11-0.334 0.211s-0.149 0.227-0.171 0.362l-0.269 1.635-8.988 1.925 1.79-4.403 2.591-0.688c8.358-2.22 19.16-2.221 27.518 0l2.591 0.688 1.79 4.403-8.988-1.925-0.269-1.635c-0.022-0.135-0.081-0.26-0.171-0.362s-0.205-0.175-0.334-0.211c-4.776-1.351-11.98-1.351-16.756 0zM37.868 11.141l-8.189-1.678-0.276-1.677 8.965 1.92-0.5 1.435z"></path>
<path fill="#f1cdb3" style="fill: var(--color1, #f1cdb3)" d="M33.29 13.119c-0.029-0.134-0.095-0.257-0.191-0.354s-0.216-0.164-0.347-0.193l-4.775-1.046-0.601-4.012c-0.025-0.17-0.109-0.324-0.236-0.436s-0.289-0.173-0.457-0.173h-1.869v-0.941c0-0.397-0.314-0.718-0.701-0.718s-0.701 0.322-0.701 0.718v0.941h-6.824v-0.941c0-0.397-0.314-0.718-0.701-0.718s-0.701 0.322-0.701 0.718v0.941h-1.87c-0.168 0-0.329 0.061-0.457 0.173s-0.211 0.266-0.236 0.436l-0.601 4.012-4.774 1.046c-0.131 0.029-0.252 0.096-0.347 0.193s-0.162 0.22-0.191 0.354l-3.242 14.969c-0.011 0.051-0.017 0.103-0.017 0.156v3.038c0 0.191 0.074 0.373 0.205 0.508s0.31 0.21 0.496 0.21h31.695c0.186 0 0.364-0.076 0.496-0.21s0.205-0.317 0.205-0.508v-3.038c0-0.052-0.006-0.105-0.017-0.156l-3.242-14.969zM7.981 13.88l4.807-1.053c0.139-0.030 0.266-0.104 0.364-0.21s0.161-0.24 0.183-0.384l0.583-3.892h12.164l0.583 3.892c0.022 0.144 0.085 0.278 0.183 0.384s0.224 0.179 0.363 0.21l4.807 1.053 2.955 13.645h-29.948l2.955-13.645zM11.797 28.962l-0.903 1.601h-1.066l0.903-1.601h1.066zM13.416 28.962h15.256l-0.903 1.601h-15.256l0.903-1.601zM4.853 28.962h4.258l-0.903 1.601h-3.355v-1.601zM29.389 30.563l0.903-1.601h4.855v1.601h-5.758z"></path>
<path fill="#f1cdb3" style="fill: var(--color1, #f1cdb3)" d="M20 26.161c4.149 0 7.525-3.459 7.525-7.711s-3.376-7.711-7.525-7.711c-4.149 0-7.525 3.459-7.525 7.711s3.376 7.711 7.525 7.711zM20 12.176c3.376 0 6.123 2.814 6.123 6.274s-2.747 6.274-6.123 6.274c-3.376 0-6.123-2.814-6.123-6.274s2.747-6.274 6.123-6.274z"></path>
<path fill="#f1cdb3" style="fill: var(--color1, #f1cdb3)" d="M20 21.185c1.472 0 2.669-1.227 2.669-2.735s-1.197-2.735-2.669-2.735c-1.472 0-2.669 1.227-2.669 2.735s1.197 2.735 2.669 2.735zM20 17.151c0.699 0 1.267 0.582 1.267 1.298s-0.568 1.298-1.267 1.298c-0.699 0-1.267-0.582-1.267-1.298s0.568-1.298 1.267-1.298z"></path>
</symbol>
<symbol id="icon-pin" viewBox="0 0 22 32">
<path fill="#f1cdb3" style="fill: var(--color1, #f1cdb3)" d="M11 0c-6.065 0-11 4.785-11 10.667 0 1.766 0.455 3.516 1.321 5.069l9.078 15.921c0.121 0.212 0.351 0.344 0.601 0.344s0.481-0.131 0.602-0.344l9.081-15.926c0.862-1.547 1.317-3.298 1.317-5.064 0-5.881-4.935-10.667-11-10.667zM19.476 15.091l-8.476 14.865-8.473-14.859c-0.754-1.353-1.152-2.885-1.152-4.43 0-5.146 4.318-9.333 9.625-9.333s9.625 4.187 9.625 9.333c0 1.545-0.398 3.077-1.149 4.424z"></path>
<path fill="#f1cdb3" style="fill: var(--color1, #f1cdb3)" d="M11 5.333c-3.033 0-5.5 2.393-5.5 5.333s2.467 5.333 5.5 5.333c3.033 0 5.5-2.393 5.5-5.333s-2.467-5.333-5.5-5.333zM11 14.667c-2.275 0-4.125-1.794-4.125-4s1.85-4 4.125-4c2.275 0 4.125 1.794 4.125 4s-1.85 4-4.125 4z"></path>
</symbol>
<symbol id="icon-shampoos" viewBox="0 0 17 32">
<path fill="#f1cdb3" style="fill: var(--color1, #f1cdb3)" d="M12.87 9.163v-2.903c0-0.384-0.311-0.696-0.696-0.696h-0.522v-4.87c0-0.384-0.311-0.696-0.696-0.696h-4.522c-0.384 0-0.696 0.311-0.696 0.696v4.87h-0.522c-0.384 0-0.696 0.311-0.696 0.696v2.903c-2.443 0.974-4.174 3.364-4.174 6.15v15.991c0 0.384 0.311 0.696 0.696 0.696h15.304c0.384 0 0.696-0.311 0.696-0.696v-15.991c-0-2.786-1.731-5.176-4.174-6.15zM7.13 1.391h3.13v4.174h-3.13v-4.174zM5.913 6.956h5.565v1.739h-5.565v-1.739zM15.652 30.609h-13.913v-15.296c0-2.882 2.344-5.226 5.226-5.226h3.461c2.882 0 5.226 2.344 5.226 5.226v15.296z"></path>
<path fill="#f1cdb3" style="fill: var(--color1, #f1cdb3)" d="M13.217 14.609h-9.043c-0.384 0-0.696 0.311-0.696 0.696v12.87c0 0.384 0.311 0.696 0.696 0.696h9.043c0.384 0 0.696-0.311 0.696-0.696v-4.372c0-0.384-0.311-0.696-0.696-0.696s-0.696 0.311-0.696 0.696v3.676h-7.652v-11.478h7.652v2.202c0 0.384 0.311 0.696 0.696 0.696s0.696-0.311 0.696-0.696v-2.898c0-0.384-0.311-0.696-0.696-0.696z"></path>
<path fill="#f1cdb3" style="fill: var(--color1, #f1cdb3)" d="M13.217 20.301c-0.384 0-0.696 0.311-0.696 0.696v0.070c0 0.384 0.311 0.696 0.696 0.696s0.696-0.311 0.696-0.696v-0.070c0-0.384-0.311-0.696-0.696-0.696z"></path>
<path fill="#f1cdb3" style="fill: var(--color1, #f1cdb3)" d="M7.996 21.947c-1.151 0-2.087 0.936-2.087 2.087s0.936 2.087 2.087 2.087 2.087-0.936 2.087-2.087c0-1.151-0.936-2.087-2.087-2.087zM7.996 24.73c-0.384 0-0.696-0.312-0.696-0.696s0.312-0.696 0.696-0.696 0.696 0.312 0.696 0.696c0 0.384-0.312 0.696-0.696 0.696z"></path>
<path fill="#f1cdb3" style="fill: var(--color1, #f1cdb3)" d="M11.651 19.192c0-1.151-0.936-2.087-2.087-2.087s-2.087 0.936-2.087 2.087c0 1.151 0.936 2.087 2.087 2.087s2.087-0.936 2.087-2.087zM9.564 19.887c-0.384 0-0.696-0.312-0.696-0.696s0.312-0.696 0.696-0.696 0.696 0.312 0.696 0.696c0 0.384-0.312 0.696-0.696 0.696z"></path>
</symbol>
<symbol id="icon-sleeping-area" viewBox="0 0 30 32">
<path fill="#f1cdb3" style="fill: var(--color1, #f1cdb3)" d="M29.841 10.649l-14.385-10.528c-0.107-0.078-0.236-0.121-0.369-0.121s-0.262 0.042-0.369 0.121l-14.385 10.528c-0.279 0.204-0.339 0.595-0.135 0.873l1.88 2.569c0.048 0.066 0.11 0.122 0.18 0.165s0.148 0.071 0.229 0.084c0.081 0.013 0.164 0.009 0.244-0.010s0.155-0.054 0.221-0.103l0.567-0.415v17.564c0 0.345 0.28 0.625 0.625 0.625h21.92c0.345 0 0.625-0.28 0.625-0.625v-17.54l0.534 0.391c0.066 0.049 0.141 0.083 0.221 0.103s0.163 0.023 0.244 0.010c0.081-0.013 0.159-0.041 0.229-0.084s0.131-0.099 0.18-0.165l1.88-2.569c0.204-0.279 0.143-0.67-0.135-0.873zM25.439 28.312h-14.787c-0.345 0-0.625 0.28-0.625 0.625s0.28 0.625 0.625 0.625h14.787v1.188h-20.67v-17.361h14.636c0.345 0 0.625-0.28 0.625-0.625s-0.28-0.625-0.625-0.625h-13.602l9.284-6.795 10.351 7.576v15.392zM27.457 12.849l-12.001-8.783c-0.107-0.078-0.236-0.121-0.369-0.121s-0.262 0.042-0.369 0.121l-12.001 8.783-1.142-1.56 13.512-9.889 13.512 9.889-1.142 1.56z"></path>
<path fill="#f1cdb3" style="fill: var(--color1, #f1cdb3)" d="M22.27 12.642c-0.008-0.040-0.021-0.079-0.036-0.118s-0.035-0.074-0.058-0.108c-0.023-0.034-0.048-0.066-0.078-0.095-0.117-0.117-0.276-0.183-0.442-0.183-0.164 0-0.326 0.067-0.442 0.183-0.029 0.029-0.055 0.061-0.078 0.095s-0.042 0.070-0.058 0.108c-0.016 0.038-0.028 0.078-0.036 0.118s-0.013 0.081-0.013 0.122c0 0.041 0.004 0.082 0.013 0.122s0.020 0.079 0.036 0.117c0.016 0.038 0.035 0.074 0.058 0.108s0.049 0.066 0.078 0.095c0.029 0.029 0.061 0.055 0.095 0.078s0.070 0.042 0.108 0.058c0.038 0.016 0.077 0.028 0.117 0.036s0.081 0.012 0.122 0.012c0.041 0 0.082-0.004 0.122-0.012s0.079-0.020 0.117-0.036c0.038-0.016 0.074-0.035 0.108-0.058s0.066-0.049 0.095-0.078c0.029-0.029 0.055-0.061 0.078-0.095s0.042-0.070 0.058-0.108c0.016-0.038 0.028-0.078 0.036-0.117s0.012-0.081 0.012-0.122c0-0.041-0.004-0.082-0.012-0.122z"></path>
<path fill="#f1cdb3" style="fill: var(--color1, #f1cdb3)" d="M9.013 28.815c-0.008-0.040-0.020-0.079-0.036-0.117s-0.035-0.074-0.058-0.108c-0.023-0.034-0.049-0.066-0.077-0.095s-0.061-0.054-0.095-0.078c-0.068-0.045-0.145-0.077-0.225-0.093s-0.164-0.016-0.244 0c-0.039 0.008-0.079 0.020-0.117 0.036s-0.074 0.035-0.107 0.058c-0.034 0.023-0.066 0.049-0.095 0.078s-0.055 0.061-0.078 0.095c-0.045 0.068-0.077 0.145-0.093 0.225-0.008 0.041-0.012 0.081-0.012 0.122-0 0.082 0.016 0.164 0.047 0.239 0.016 0.038 0.035 0.074 0.058 0.108s0.049 0.066 0.078 0.095c0.029 0.029 0.061 0.055 0.095 0.078s0.070 0.042 0.107 0.058c0.038 0.016 0.078 0.027 0.117 0.036 0.041 0.008 0.082 0.013 0.123 0.013 0.123-0.001 0.244-0.037 0.347-0.106 0.034-0.022 0.066-0.048 0.095-0.078s0.055-0.061 0.077-0.095c0.068-0.103 0.105-0.224 0.106-0.347 0-0.041-0.004-0.081-0.012-0.122z"></path>
<path fill="#f1cdb3" style="fill: var(--color1, #f1cdb3)" d="M22.851 16.306c0-0.53-0.208-1.027-0.585-1.401-0.374-0.369-0.885-0.576-1.406-0.572-0.164 0.002-0.328 0.024-0.487 0.066-1.157 0.296-2.288 0.688-3.381 1.172-0.624-0.148-1.263-0.222-1.904-0.222-0.361 0-0.725 0.024-1.083 0.070-0.276 0.036-0.55 0.087-0.821 0.151-1.092-0.483-2.223-0.875-3.38-1.172-0.006-0.002-0.011-0.003-0.017-0.004-0.615-0.157-1.25-0.016-1.74 0.387s-0.753 0.997-0.719 1.631c0.034 0.65 0.098 1.299 0.192 1.943 0.084 0.578 0.191 1.152 0.321 1.721-0.194 0.495-0.328 1.011-0.402 1.538-0.030 0.22-0.046 0.441-0.046 0.663 0 2.798 2.44 5.074 5.439 5.074h4.514c1.644 0 3.182-0.684 4.219-1.876 0.951-1.092 1.368-2.464 1.173-3.862-0.042-0.3-0.104-0.596-0.185-0.888-0.061-0.22-0.134-0.436-0.217-0.649 0.275-1.204 0.447-2.429 0.512-3.663 0.002-0.037 0.003-0.073 0.003-0.109zM21.599 16.345l-0 0.002c-0.065 1.226-0.241 2.443-0.526 3.637-0.031 0.13-0.020 0.266 0.033 0.389 0.095 0.224 0.176 0.454 0.242 0.689 0.066 0.238 0.116 0.48 0.151 0.725 0.144 1.035-0.168 2.054-0.878 2.869-0.8 0.919-1.994 1.446-3.277 1.446h-4.514c-2.31 0-4.189-1.715-4.189-3.824 0-0.162 0.012-0.327 0.034-0.492 0.068-0.486 0.2-0.961 0.392-1.413 0.052-0.123 0.064-0.26 0.033-0.39-0.142-0.597-0.258-1.2-0.346-1.807s-0.148-1.218-0.18-1.83c-0.012-0.233 0.084-0.451 0.264-0.598 0.132-0.108 0.292-0.165 0.457-0.165 0.056 0 0.113 0.007 0.169 0.020l0.012 0.003c1.162 0.297 2.296 0.696 3.388 1.192 0.132 0.060 0.281 0.073 0.421 0.035 0.289-0.077 0.584-0.135 0.88-0.175 0.304-0.040 0.613-0.060 0.92-0.060 0.612 0 1.218 0.079 1.801 0.234 0.14 0.037 0.288 0.025 0.42-0.035 1.096-0.498 2.234-0.898 3.4-1.196 0.053-0.013 0.108-0.020 0.163-0.020h0.008c0.187 0 0.371 0.077 0.507 0.211 0.068 0.067 0.122 0.146 0.159 0.234s0.056 0.182 0.055 0.277c0 0.013-0 0.026-0.001 0.039z"></path>
<path fill="#f1cdb3" style="fill: var(--color1, #f1cdb3)" d="M16.259 23.235c-0.302 0-0.547-0.245-0.547-0.547 0-0.345-0.28-0.625-0.625-0.625s-0.625 0.28-0.625 0.625v0.023c0 0.302-0.245 0.547-0.547 0.547-0.345 0-0.625 0.28-0.625 0.625s0.28 0.625 0.625 0.625c0.454 0 0.869-0.169 1.185-0.448 0.324 0.275 0.735 0.425 1.159 0.425 0.345 0 0.625-0.28 0.625-0.625s-0.28-0.625-0.625-0.625z"></path>
<path fill="#f1cdb3" style="fill: var(--color1, #f1cdb3)" d="M12.902 20.355l-0.928-0.425c-0.082-0.038-0.17-0.057-0.26-0.057s-0.179 0.019-0.26 0.057l-0.928 0.425c-0.314 0.144-0.452 0.515-0.308 0.828 0.034 0.075 0.083 0.142 0.143 0.198s0.131 0.099 0.208 0.128 0.159 0.042 0.241 0.039c0.082-0.003 0.163-0.022 0.237-0.056l0.668-0.306 0.668 0.306c0.314 0.144 0.685 0.006 0.829-0.308s0.006-0.685-0.308-0.828z"></path>
<path fill="#f1cdb3" style="fill: var(--color1, #f1cdb3)" d="M19.649 20.355l-0.928-0.425c-0.082-0.038-0.17-0.057-0.26-0.057s-0.179 0.019-0.26 0.057l-0.928 0.425c-0.314 0.144-0.452 0.515-0.308 0.828s0.515 0.452 0.828 0.308l0.668-0.306 0.668 0.306c0.081 0.038 0.17 0.057 0.26 0.057 0.237 0 0.463-0.135 0.569-0.365 0.144-0.314 0.006-0.685-0.308-0.828z"></path>
</symbol>
<symbol id="icon-toys" viewBox="0 0 32 32">
<path fill="#f1cdb3" style="fill: var(--color1, #f1cdb3)" d="M27.314 4.686c-3.022-3.022-7.040-4.686-11.314-4.686s-8.292 1.664-11.314 4.686c-3.022 3.022-4.686 7.040-4.686 11.314s1.664 8.292 4.686 11.314c3.022 3.022 7.040 4.686 11.314 4.686s8.292-1.664 11.314-4.686c3.022-3.022 4.686-7.040 4.686-11.314s-1.664-8.292-4.686-11.314zM5.67 26.33c-2.521-2.521-4.007-5.802-4.244-9.325 0.382 0.013 0.773 0.049 1.167 0.108 2.828 0.42 5.675 1.94 8.014 4.28s3.86 5.186 4.28 8.015c0.058 0.384 0.093 0.772 0.107 1.16-3.399-0.232-6.732-1.644-9.325-4.237zM16.387 30.596c-0.013-0.467-0.055-0.932-0.124-1.394-0.464-3.121-2.123-6.245-4.672-8.794s-5.672-4.209-8.794-4.672c-0.464-0.069-0.932-0.111-1.401-0.124 0.012-0.467 0.046-0.931 0.101-1.389 0.496 0.016 1 0.062 1.504 0.137 3.414 0.507 6.814 2.306 9.573 5.065s4.558 6.159 5.065 9.573c0.074 0.496 0.119 0.995 0.136 1.496-0.461 0.056-0.925 0.090-1.389 0.102zM26.33 26.33c-2.041 2.041-4.54 3.35-7.17 3.929-0.023-0.49-0.071-0.979-0.144-1.465-0.551-3.708-2.489-7.384-5.457-10.353s-6.645-4.906-10.353-5.457c-0.488-0.073-0.978-0.121-1.471-0.144l-0.004 0.003c0.591-2.697 1.939-5.174 3.938-7.173 1.952-1.952 4.324-3.235 6.828-3.849 0.017 0.575 0.068 1.148 0.153 1.717 0.551 3.708 2.489 7.384 5.457 10.353s6.645 4.906 10.353 5.457c0.571 0.085 1.146 0.136 1.723 0.154l0.006-0.010c-0.627 2.567-1.944 4.922-3.861 6.839zM30.457 18.115c-0.587-0.006-1.187-0.054-1.791-0.143-3.415-0.507-6.814-2.306-9.573-5.065s-4.558-6.159-5.065-9.573c-0.089-0.601-0.137-1.199-0.143-1.783 0.462-0.067 0.927-0.112 1.393-0.135-0.001 0.558 0.041 1.132 0.127 1.713 0.464 3.121 2.123 6.245 4.672 8.794 0.272 0.272 0.712 0.272 0.984 0s0.272-0.712 0-0.984c-2.34-2.34-3.86-5.186-4.28-8.014-0.076-0.515-0.114-1.021-0.113-1.511 3.515 0.159 6.984 1.578 9.662 4.256 2.601 2.601 4.1 6.011 4.263 9.662-0.494 0.001-1.001-0.036-1.518-0.113-0.38-0.056-0.734 0.206-0.79 0.586s0.206 0.734 0.586 0.79c0.575 0.085 1.142 0.128 1.694 0.128 0.009 0 0.018-0 0.027-0-0.023 0.466-0.067 0.93-0.134 1.392z"></path>
<path fill="#f1cdb3" style="fill: var(--color1, #f1cdb3)" d="M24.614 13.747c-0.184 0-0.361 0.074-0.492 0.204s-0.204 0.307-0.204 0.492c0 0.183 0.074 0.362 0.204 0.492s0.309 0.204 0.492 0.204 0.362-0.074 0.492-0.204c0.13-0.131 0.203-0.307 0.204-0.492 0-0.183-0.074-0.362-0.204-0.492-0.131-0.13-0.307-0.204-0.492-0.204z"></path>
</symbol>
<symbol id="icon-transportation" viewBox="0 0 33 32">
<path fill="#f1cdb3" style="fill: var(--color1, #f1cdb3)" d="M29.869 6.779h-3.746v-0.108c0-1.938-1.576-3.514-3.514-3.514s-3.514 1.576-3.514 3.514v0.108h-4.399c-1.448 0-2.627 1.178-2.627 2.627v2.968h-3.939c-0.94 0-1.775 0.563-2.128 1.434-0.005 0.013-0.010 0.026-0.014 0.039l-2.273 6.884c-0.021 0.012-0.047 0.027-0.080 0.043-0.13 0.065-0.373 0.164-0.791 0.266-0.664 0.161-1.254 0.54-1.676 1.078s-0.65 1.201-0.649 1.884v3.252c0 1.089 0.886 1.975 1.975 1.975l2.786 0c0.294 1.576 1.679 2.772 3.338 2.772s3.044-1.197 3.338-2.772l9.826 0c0.294 1.575 1.679 2.772 3.338 2.772s3.044-1.196 3.338-2.772l1.769 0c1.354 0 2.264-0.91 2.264-2.264v-16.254c0-3.547-1.837-3.93-2.627-3.93zM20.346 6.672c0-1.248 1.016-2.264 2.264-2.264s2.264 1.016 2.264 2.264v0.108h-4.528v-0.108zM7.169 14.26c0.080-0.189 0.214-0.35 0.385-0.464s0.372-0.173 0.577-0.173h3.939v7.084h-7.030l2.129-6.447zM8.62 30.75c-1.184 0-2.147-0.963-2.147-2.147 0-0.015 0.001-0.029 0.001-0.044 0-0.022 0.001-0.045 0.002-0.067 0-0.004 0.001-0.007 0.001-0.010 0.063-1.128 1-2.026 2.143-2.026 1.034 0 1.9 0.735 2.102 1.711l0.001 0.004c0.007 0.033 0.013 0.066 0.018 0.1l0.001 0.006c0.004 0.024 0.007 0.049 0.009 0.074 0.001 0.011 0.003 0.022 0.004 0.034 0.002 0.019 0.003 0.039 0.004 0.058 0.001 0.017 0.003 0.034 0.004 0.051s0.001 0.035 0.001 0.053c0 0.019 0.001 0.038 0.001 0.058 0 1.184-0.963 2.147-2.147 2.147zM25.124 30.75c-1.184 0-2.147-0.963-2.147-2.147 0-0.028 0.001-0.056 0.002-0.083 0-0.009 0-0.018 0.001-0.027 0.001-0.021 0.003-0.041 0.005-0.061 0.001-0.016 0.002-0.032 0.004-0.048 0.001-0.007 0.002-0.013 0.003-0.020 0.007-0.065 0.017-0.13 0.030-0.193 0-0.002 0.001-0.004 0.001-0.006 0.203-0.975 1.068-1.709 2.102-1.709 0.296 0 0.578 0.060 0.835 0.169 0.77 0.326 1.312 1.090 1.312 1.978 0 1.184-0.963 2.147-2.147 2.147zM30.231 27.978l-1.768-0c-0.002-0.011-0.005-0.022-0.007-0.033-0.015-0.073-0.032-0.146-0.051-0.219-0.009-0.032-0.017-0.063-0.027-0.095-0.006-0.020-0.012-0.039-0.018-0.058-0.011-0.033-0.022-0.065-0.033-0.098-0.006-0.017-0.012-0.035-0.018-0.052-0.014-0.037-0.029-0.074-0.044-0.111-0.005-0.012-0.009-0.024-0.014-0.035-0.021-0.049-0.042-0.097-0.065-0.144-0.003-0.006-0.006-0.012-0.009-0.017-0.020-0.041-0.041-0.081-0.062-0.121-0.008-0.015-0.016-0.029-0.024-0.044-0.017-0.031-0.035-0.062-0.053-0.092-0.010-0.016-0.020-0.033-0.030-0.049-0.028-0.045-0.057-0.089-0.087-0.133s-0.060-0.085-0.092-0.127c-0.020-0.026-0.040-0.051-0.060-0.077-0.012-0.015-0.024-0.030-0.037-0.045-0.022-0.026-0.045-0.053-0.068-0.078-0.011-0.013-0.022-0.026-0.034-0.038-0.029-0.031-0.058-0.062-0.088-0.092-0.006-0.006-0.013-0.013-0.019-0.020-0.037-0.037-0.075-0.073-0.113-0.108-0.008-0.008-0.017-0.015-0.025-0.022-0.030-0.027-0.061-0.054-0.092-0.080-0.014-0.011-0.028-0.022-0.041-0.033-0.026-0.021-0.053-0.042-0.080-0.063-0.016-0.012-0.032-0.024-0.048-0.035-0.068-0.050-0.138-0.097-0.209-0.141-0.017-0.011-0.035-0.022-0.053-0.032-0.028-0.017-0.056-0.032-0.084-0.048-0.017-0.010-0.035-0.020-0.052-0.029-0.031-0.016-0.062-0.032-0.093-0.048-0.016-0.008-0.031-0.016-0.046-0.023-0.041-0.019-0.082-0.038-0.124-0.056-0.006-0.003-0.013-0.006-0.019-0.009-0.048-0.020-0.097-0.040-0.146-0.058-0.014-0.005-0.028-0.010-0.043-0.015-0.035-0.012-0.071-0.025-0.107-0.036-0.019-0.006-0.038-0.011-0.057-0.017-0.032-0.009-0.064-0.019-0.096-0.027-0.021-0.006-0.041-0.011-0.062-0.016-0.053-0.013-0.105-0.025-0.158-0.035-0.031-0.006-0.063-0.012-0.095-0.017-0.022-0.004-0.043-0.007-0.065-0.010-0.033-0.005-0.066-0.009-0.099-0.013-0.021-0.002-0.042-0.005-0.063-0.007-0.037-0.003-0.073-0.006-0.11-0.008-0.018-0.001-0.036-0.003-0.054-0.004-0.055-0.003-0.11-0.004-0.165-0.004s-0.111 0.002-0.165 0.004c-0.018 0.001-0.036 0.003-0.054 0.004-0.037 0.002-0.073 0.005-0.11 0.008-0.021 0.002-0.042 0.005-0.063 0.007-0.033 0.004-0.066 0.008-0.099 0.013-0.022 0.003-0.044 0.007-0.065 0.010-0.053 0.009-0.107 0.019-0.16 0.030-0.031 0.007-0.062 0.014-0.093 0.022-0.021 0.005-0.042 0.010-0.063 0.016-0.032 0.008-0.063 0.018-0.095 0.027-0.019 0.006-0.039 0.011-0.058 0.017-0.035 0.011-0.070 0.023-0.105 0.035-0.015 0.005-0.030 0.010-0.045 0.016-0.049 0.018-0.098 0.037-0.146 0.058-0.008 0.003-0.016 0.007-0.024 0.011-0.040 0.017-0.080 0.035-0.119 0.054-0.017 0.008-0.033 0.016-0.049 0.025-0.030 0.015-0.060 0.030-0.090 0.046-0.018 0.010-0.036 0.020-0.054 0.030-0.027 0.015-0.054 0.031-0.081 0.047-0.063 0.038-0.125 0.078-0.186 0.12-0.025 0.017-0.050 0.035-0.075 0.053-0.017 0.012-0.034 0.025-0.051 0.038-0.026 0.019-0.051 0.040-0.076 0.060-0.015 0.012-0.030 0.024-0.045 0.036-0.029 0.024-0.057 0.049-0.085 0.074-0.010 0.009-0.021 0.018-0.031 0.028-0.038 0.035-0.075 0.070-0.111 0.106-0.009 0.009-0.018 0.019-0.027 0.028-0.027 0.028-0.054 0.055-0.080 0.084-0.013 0.014-0.026 0.029-0.038 0.043-0.021 0.024-0.043 0.048-0.063 0.073-0.014 0.016-0.027 0.033-0.040 0.049-0.019 0.024-0.038 0.048-0.057 0.072-0.045 0.059-0.087 0.119-0.128 0.18-0.017 0.026-0.034 0.052-0.050 0.078-0.011 0.018-0.023 0.036-0.033 0.054-0.017 0.028-0.033 0.057-0.049 0.085-0.009 0.017-0.019 0.033-0.028 0.050-0.019 0.036-0.038 0.072-0.056 0.108-0.005 0.010-0.011 0.020-0.015 0.030-0.023 0.047-0.044 0.094-0.064 0.142-0.006 0.015-0.012 0.029-0.018 0.044-0.014 0.034-0.027 0.067-0.040 0.102-0.007 0.019-0.014 0.038-0.020 0.058-0.011 0.030-0.021 0.061-0.031 0.092-0.007 0.021-0.013 0.042-0.019 0.063-0.015 0.051-0.029 0.103-0.042 0.155-0.007 0.030-0.014 0.060-0.021 0.091-0.005 0.022-0.010 0.044-0.014 0.066-0.002 0.011-0.005 0.021-0.007 0.031l-9.825-0c-0.002-0.011-0.005-0.022-0.007-0.032-0.004-0.021-0.009-0.043-0.013-0.064-0.018-0.084-0.040-0.167-0.064-0.249-0.006-0.020-0.012-0.041-0.019-0.061-0.010-0.031-0.021-0.063-0.032-0.094-0.007-0.019-0.013-0.037-0.020-0.056-0.013-0.035-0.027-0.069-0.041-0.104-0.006-0.014-0.011-0.029-0.017-0.043-0.020-0.048-0.042-0.095-0.064-0.142-0.005-0.009-0.010-0.019-0.014-0.028-0.018-0.037-0.037-0.074-0.057-0.111-0.009-0.017-0.018-0.033-0.028-0.049-0.016-0.029-0.033-0.058-0.050-0.086-0.011-0.018-0.022-0.036-0.033-0.053-0.016-0.026-0.033-0.052-0.050-0.078-0.041-0.061-0.084-0.121-0.128-0.18-0.019-0.024-0.038-0.048-0.057-0.072-0.013-0.016-0.026-0.033-0.040-0.049-0.021-0.025-0.042-0.049-0.063-0.073-0.013-0.014-0.026-0.029-0.039-0.044-0.026-0.028-0.052-0.056-0.079-0.083-0.009-0.010-0.018-0.019-0.028-0.029-0.036-0.036-0.073-0.072-0.111-0.106-0.011-0.010-0.021-0.019-0.032-0.028-0.028-0.025-0.056-0.049-0.085-0.073-0.015-0.013-0.031-0.025-0.046-0.037-0.025-0.020-0.050-0.040-0.075-0.059-0.017-0.013-0.034-0.025-0.051-0.038-0.025-0.018-0.050-0.036-0.075-0.053-0.043-0.029-0.087-0.058-0.131-0.086-0.018-0.012-0.037-0.023-0.055-0.034-0.027-0.016-0.054-0.031-0.081-0.047-0.018-0.010-0.036-0.021-0.055-0.030-0.030-0.016-0.059-0.031-0.089-0.046-0.017-0.008-0.033-0.017-0.050-0.025-0.039-0.018-0.078-0.036-0.117-0.053-0.008-0.004-0.017-0.008-0.025-0.011-0.048-0.020-0.097-0.039-0.146-0.058-0.015-0.006-0.030-0.010-0.046-0.016-0.034-0.012-0.069-0.024-0.104-0.035-0.019-0.006-0.039-0.012-0.058-0.017-0.031-0.009-0.063-0.018-0.094-0.027-0.021-0.006-0.042-0.011-0.063-0.016-0.083-0.021-0.168-0.038-0.252-0.052-0.022-0.004-0.044-0.007-0.065-0.010-0.033-0.005-0.066-0.009-0.099-0.013-0.021-0.002-0.042-0.005-0.063-0.007-0.037-0.003-0.073-0.006-0.11-0.008-0.018-0.001-0.036-0.003-0.054-0.004-0.055-0.003-0.11-0.004-0.165-0.004s-0.111 0.002-0.165 0.004c-0.018 0.001-0.036 0.003-0.054 0.004-0.037 0.002-0.073 0.005-0.11 0.008-0.021 0.002-0.042 0.005-0.063 0.007-0.033 0.004-0.066 0.008-0.098 0.013-0.022 0.003-0.044 0.007-0.066 0.010-0.053 0.009-0.107 0.019-0.159 0.030-0.031 0.007-0.062 0.014-0.093 0.021-0.021 0.005-0.042 0.010-0.063 0.016-0.031 0.008-0.063 0.017-0.094 0.027-0.020 0.006-0.039 0.011-0.059 0.018-0.034 0.011-0.068 0.023-0.102 0.035-0.016 0.006-0.032 0.011-0.047 0.016-0.049 0.018-0.097 0.037-0.145 0.057-0.010 0.004-0.019 0.009-0.029 0.013-0.038 0.017-0.076 0.034-0.114 0.052-0.018 0.008-0.035 0.017-0.052 0.026-0.029 0.014-0.058 0.029-0.087 0.045-0.019 0.010-0.038 0.021-0.056 0.031-0.027 0.015-0.053 0.030-0.079 0.046-0.045 0.027-0.089 0.054-0.132 0.083-0.019 0.012-0.037 0.025-0.056 0.038-0.024 0.017-0.049 0.034-0.073 0.052-0.018 0.013-0.036 0.026-0.053 0.039-0.025 0.019-0.049 0.038-0.073 0.057-0.016 0.013-0.033 0.026-0.048 0.039-0.027 0.023-0.053 0.046-0.080 0.069-0.012 0.011-0.025 0.021-0.037 0.032-0.037 0.034-0.074 0.069-0.11 0.105-0.011 0.011-0.022 0.023-0.033 0.034-0.025 0.026-0.050 0.051-0.074 0.078-0.014 0.015-0.028 0.031-0.041 0.047-0.020 0.023-0.041 0.046-0.060 0.070-0.014 0.017-0.028 0.034-0.042 0.052-0.019 0.023-0.037 0.046-0.055 0.069-0.031 0.041-0.062 0.083-0.091 0.126-0.013 0.019-0.026 0.038-0.038 0.056-0.016 0.025-0.032 0.050-0.048 0.075-0.012 0.019-0.024 0.037-0.035 0.056-0.016 0.027-0.032 0.054-0.047 0.082-0.010 0.018-0.020 0.035-0.030 0.053-0.018 0.034-0.035 0.068-0.052 0.102-0.006 0.012-0.013 0.024-0.019 0.037-0.022 0.046-0.043 0.093-0.064 0.14-0.007 0.016-0.013 0.033-0.020 0.049-0.013 0.032-0.026 0.064-0.038 0.097-0.007 0.020-0.014 0.040-0.021 0.060-0.010 0.030-0.021 0.059-0.030 0.089-0.007 0.021-0.013 0.043-0.020 0.065-0.009 0.029-0.017 0.058-0.025 0.088-0.014 0.052-0.027 0.104-0.038 0.156-0.005 0.023-0.010 0.045-0.014 0.068-0.002 0.010-0.005 0.020-0.006 0.031h-2.785c-0.4 0-0.725-0.325-0.725-0.725v-3.252c-0.001-0.403 0.134-0.794 0.383-1.111s0.597-0.541 0.988-0.636c0.356-0.087 0.662-0.186 0.912-0.296h22.7c0.345 0 0.625-0.28 0.625-0.625s-0.28-0.625-0.625-0.625h-13.433v-11.301c0-0.759 0.618-1.377 1.377-1.377h15.172c1.198 0 1.377 1.679 1.377 2.68v16.254c0 0.883-0.636 1.014-1.014 1.014z"></path>
<path fill="#f1cdb3" style="fill: var(--color1, #f1cdb3)" d="M27.433 13.235c0-0.82-0.576-1.508-1.345-1.682 0.004-0.043 0.007-0.087 0.009-0.13 0.014-0.509-0.176-0.992-0.535-1.362-0.365-0.376-0.876-0.591-1.4-0.591-0.634 0-1.198 0.308-1.551 0.783-0.353-0.475-0.918-0.783-1.553-0.783-0.52 0-1.026 0.213-1.39 0.584-0.361 0.368-0.555 0.853-0.545 1.364 0.001 0.046 0.004 0.091 0.008 0.136-0.769 0.173-1.345 0.861-1.345 1.682 0 0.694 0.413 1.293 1.005 1.566-0.418 0.517-0.661 1.17-0.661 1.862 0 1.632 1.328 2.96 2.96 2.96 0.538 0 1.063-0.147 1.519-0.42 0.459 0.275 0.984 0.42 1.519 0.42 1.632 0 2.96-1.328 2.96-2.96 0-0.691-0.244-1.345-0.661-1.862 0.593-0.273 1.005-0.872 1.005-1.566zM24.162 10.72c0.189 0 0.372 0.077 0.504 0.212 0.122 0.125 0.186 0.287 0.182 0.455-0.011 0.383-0.321 0.698-0.693 0.703-0.099-0-0.198-0.021-0.288-0.063-0.011-0.005-0.022-0.011-0.033-0.016-0.057-0.030-0.109-0.068-0.155-0.114-0.131-0.13-0.202-0.304-0.201-0.49 0.002-0.379 0.309-0.687 0.685-0.687zM20.56 10.929c0.065-0.066 0.142-0.119 0.228-0.155s0.177-0.054 0.27-0.054c0.377 0 0.685 0.308 0.685 0.686 0 0.092-0.018 0.183-0.053 0.268s-0.088 0.162-0.153 0.227c-0.045 0.044-0.095 0.081-0.151 0.111-0.020 0.009-0.040 0.019-0.061 0.029-0.081 0.034-0.169 0.050-0.257 0.049-0.376-0.006-0.688-0.319-0.695-0.697-0.003-0.173 0.063-0.338 0.187-0.464zM19.036 13.235c-0-0.261 0.213-0.474 0.474-0.474s0.474 0.213 0.474 0.474c0 0.054-0.009 0.105-0.026 0.153-0.016 0.031-0.031 0.063-0.045 0.095-0.084 0.135-0.233 0.226-0.403 0.226-0.261 0-0.474-0.213-0.474-0.474zM24.129 18.373c-0.408-0-0.802-0.146-1.112-0.412-0.113-0.097-0.258-0.151-0.407-0.151s-0.294 0.053-0.407 0.151c-0.31 0.266-0.704 0.412-1.112 0.412-0.943 0-1.71-0.767-1.71-1.71 0-0.715 0.451-1.36 1.121-1.606 0.11-0.040 0.206-0.111 0.278-0.203s0.116-0.203 0.128-0.32c0.018-0.172 0.061-0.34 0.129-0.499 0.022-0.042 0.043-0.085 0.062-0.13 0.166-0.312 0.425-0.565 0.741-0.724 0.027-0.012 0.054-0.025 0.081-0.038 0.217-0.095 0.452-0.144 0.689-0.144 0.244 0 0.477 0.051 0.688 0.143 0.027 0.013 0.053 0.026 0.081 0.038 0.317 0.158 0.576 0.412 0.742 0.724 0.019 0.044 0.040 0.087 0.062 0.13 0.068 0.159 0.111 0.327 0.129 0.499 0.012 0.117 0.056 0.227 0.128 0.32s0.168 0.163 0.278 0.203c0.671 0.246 1.121 0.892 1.121 1.606 0 0.943-0.767 1.71-1.71 1.71zM25.709 13.709c-0.17 0-0.319-0.091-0.403-0.226-0.015-0.032-0.030-0.064-0.045-0.095-0.017-0.049-0.026-0.101-0.026-0.153 0-0.261 0.213-0.474 0.474-0.474s0.474 0.213 0.474 0.474c-0 0.261-0.213 0.474-0.474 0.474z"></path>
<path fill="#f1cdb3" style="fill: var(--color1, #f1cdb3)" d="M29.877 21.214c-0.008-0.040-0.020-0.079-0.036-0.117s-0.035-0.074-0.058-0.108c-0.023-0.034-0.048-0.066-0.078-0.095s-0.061-0.055-0.095-0.078c-0.068-0.045-0.145-0.077-0.225-0.093s-0.163-0.016-0.244 0c-0.040 0.008-0.079 0.020-0.118 0.036s-0.074 0.035-0.107 0.058c-0.034 0.023-0.066 0.049-0.095 0.078s-0.055 0.061-0.078 0.095c-0.023 0.034-0.042 0.070-0.057 0.108s-0.028 0.077-0.036 0.117c-0.008 0.040-0.012 0.081-0.012 0.122s0.004 0.082 0.012 0.122c0.008 0.039 0.020 0.079 0.036 0.117s0.035 0.074 0.058 0.108c0.022 0.034 0.049 0.066 0.078 0.095s0.061 0.055 0.095 0.078c0.034 0.023 0.070 0.041 0.107 0.057s0.078 0.028 0.118 0.036c0.040 0.008 0.081 0.013 0.122 0.013s0.082-0.004 0.122-0.013c0.040-0.007 0.079-0.020 0.117-0.036s0.074-0.034 0.108-0.057c0.034-0.023 0.066-0.049 0.095-0.078s0.055-0.061 0.078-0.095c0.022-0.034 0.042-0.070 0.058-0.108s0.027-0.078 0.036-0.117c0.008-0.041 0.012-0.082 0.012-0.122s-0.004-0.082-0.012-0.122z"></path>
<path fill="#f1cdb3" style="fill: var(--color1, #f1cdb3)" d="M22.61 0c-0.345 0-0.625 0.28-0.625 0.625v1.046c0 0.345 0.28 0.625 0.625 0.625s0.625-0.28 0.625-0.625v-1.046c0-0.345-0.28-0.625-0.625-0.625z"></path>
<path fill="#f1cdb3" style="fill: var(--color1, #f1cdb3)" d="M19.977 2.43l-0.872-0.685c-0.065-0.051-0.138-0.088-0.218-0.11s-0.162-0.028-0.243-0.019c-0.081 0.010-0.16 0.036-0.232 0.076s-0.134 0.094-0.185 0.159c-0.213 0.271-0.166 0.664 0.106 0.877l0.872 0.685c0.11 0.087 0.246 0.134 0.386 0.133 0.095 0 0.188-0.021 0.274-0.063s0.16-0.102 0.218-0.176c0.213-0.272 0.166-0.664-0.106-0.878z"></path>
<path fill="#f1cdb3" style="fill: var(--color1, #f1cdb3)" d="M26.993 1.851c-0.213-0.272-0.606-0.319-0.878-0.106l-0.872 0.685c-0.272 0.213-0.319 0.606-0.106 0.878 0.058 0.075 0.133 0.135 0.218 0.176s0.179 0.063 0.274 0.063c0.14 0 0.276-0.047 0.386-0.133l0.872-0.685c0.272-0.213 0.319-0.606 0.106-0.878z"></path>
</symbol>
<symbol id="icon-vector" viewBox="0 0 26 32">
<path fill="#f1cdb3" style="fill: var(--color1, #f1cdb3)" d="M25.012 13.599l-3.069-8.4v-4.437c0-0.421-0.341-0.762-0.762-0.762h-16.762c-0.421 0-0.762 0.341-0.762 0.762v4.437l-3.069 8.4c-0.364 0.995-0.55 2.046-0.55 3.106v12.669c0 1.448 1.178 2.626 2.626 2.626h20.272c1.448 0 2.626-1.178 2.626-2.626v-12.669c0-1.063-0.185-2.108-0.55-3.106zM5.181 1.524h15.238v3.048h-15.238v-3.048zM24.038 26.737h-10.754c-0.421 0-0.762 0.341-0.762 0.762s0.341 0.762 0.762 0.762h10.754v1.113c0 0.608-0.494 1.102-1.102 1.102h-20.272c-0.608 0-1.102-0.494-1.102-1.102v-12.669c-0-0.881 0.154-1.756 0.457-2.583l2.933-8.027h15.696l2.933 8.027c0.303 0.828 0.458 1.702 0.457 2.583l0 10.032z"></path>
<path fill="#f1cdb3" style="fill: var(--color1, #f1cdb3)" d="M15.796 18.029c-0.249-1.561-1.605-2.759-3.235-2.759s-2.987 1.197-3.235 2.759c-1.289 0.53-2.132 1.851-2.024 3.286 0.121 1.599 1.419 2.894 3.018 3.013 0.618 0.046 1.231-0.081 1.774-0.367 0.297-0.156 0.637-0.156 0.934 0 0.471 0.248 0.995 0.377 1.527 0.377 0.082 0 0.164-0.003 0.247-0.009 1.599-0.119 2.897-1.414 3.018-3.013 0.109-1.435-0.734-2.756-2.024-3.286zM16.3 21.2c-0.065 0.854-0.758 1.545-1.612 1.609-0.332 0.025-0.661-0.043-0.95-0.196-0.363-0.192-0.767-0.292-1.178-0.292s-0.815 0.1-1.178 0.292c-0.289 0.153-0.617 0.221-0.95 0.196-0.854-0.063-1.547-0.755-1.612-1.609-0.067-0.876 0.528-1.673 1.383-1.853 0.174-0.037 0.329-0.133 0.44-0.272s0.169-0.312 0.165-0.49l-0.001-0.039c0-0.966 0.786-1.752 1.752-1.752s1.752 0.786 1.752 1.75l-0.001 0.041c-0.004 0.177 0.055 0.351 0.165 0.49s0.266 0.235 0.44 0.272c0.855 0.18 1.45 0.977 1.383 1.853z"></path>
<path fill="#f1cdb3" style="fill: var(--color1, #f1cdb3)" d="M12.56 13.747c1.365 0 2.476-1.111 2.476-2.476s-1.111-2.476-2.476-2.476c-1.365 0-2.476 1.111-2.476 2.476s1.111 2.476 2.476 2.476zM12.56 10.318c0.525 0 0.952 0.427 0.952 0.952s-0.427 0.952-0.952 0.952c-0.525 0-0.952-0.427-0.952-0.952s0.427-0.952 0.952-0.952z"></path>
<path fill="#f1cdb3" style="fill: var(--color1, #f1cdb3)" d="M9.703 14.217c0-1.365-1.111-2.476-2.476-2.476s-2.476 1.111-2.476 2.476c0 1.365 1.111 2.476 2.476 2.476s2.476-1.111 2.476-2.476zM7.227 15.169c-0.525 0-0.952-0.427-0.952-0.952s0.427-0.952 0.952-0.952c0.525 0 0.952 0.427 0.952 0.952s-0.427 0.952-0.952 0.952z"></path>
<path fill="#f1cdb3" style="fill: var(--color1, #f1cdb3)" d="M17.894 11.74c-1.365 0-2.476 1.111-2.476 2.476s1.111 2.476 2.476 2.476c1.365 0 2.476-1.111 2.476-2.476s-1.111-2.476-2.476-2.476zM17.894 15.169c-0.525 0-0.952-0.427-0.952-0.952s0.427-0.952 0.952-0.952c0.525 0 0.952 0.427 0.952 0.952s-0.427 0.952-0.952 0.952z"></path>
<path fill="#f1cdb3" style="fill: var(--color1, #f1cdb3)" d="M9.97 26.737h-0.185c-0.421 0-0.762 0.341-0.762 0.762s0.341 0.762 0.762 0.762h0.185c0.421 0 0.762-0.341 0.762-0.762s-0.341-0.762-0.762-0.762z"></path>
</symbol>
<symbol id="icon-vitamins" viewBox="0 0 35 32">
<path fill="#f1cdb3" style="fill: var(--color1, #f1cdb3)" d="M31.599 18.85c-1.905-0.648-4.425-1.006-7.095-1.006-0.167 0-0.333 0.001-0.499 0.004-2.484 0.042-4.81 0.393-6.597 1.001-0.287 0.097-0.569 0.206-0.847 0.326v-10.895c0-4.566-3.715-8.281-8.281-8.281s-8.281 3.715-8.281 8.281v14.949c0 4.566 3.715 8.281 8.281 8.281 1.448 0 2.874-0.38 4.123-1.098 0.787-0.453 1.495-1.035 2.093-1.714 0.435 0.611 1.296 1.257 2.911 1.806 1.905 0.648 4.425 1.006 7.095 1.006s5.19-0.357 7.095-1.006c2.736-0.931 3.31-2.137 3.31-2.985v-5.684c0-0.848-0.574-2.054-3.31-2.985zM15.462 21.836c0-0.025 0.003-0.051 0.007-0.076l0.001-0.007c0.023-0.123 0.097-0.266 0.234-0.421l0.003-0.003c0.021-0.023 0.043-0.047 0.067-0.071 0.016-0.016 0.032-0.032 0.048-0.047l0.020-0.019c0.114-0.105 0.252-0.211 0.411-0.315 0.003-0.002 0.005-0.004 0.008-0.006 0.373-0.242 0.891-0.493 1.588-0.73 1.768-0.602 4.131-0.933 6.656-0.933 2.3 0 4.465 0.276 6.169 0.78l-14.592 2.689c-0.438-0.323-0.618-0.621-0.619-0.84v-0.001zM15.198 19.951c-0.526 0.403-0.819 0.812-0.967 1.192-0.050 0.128-0.086 0.26-0.108 0.396-0.010 0.062-0.017 0.124-0.021 0.186l-0.001 0.018c-0.002 0.032-0.003 0.063-0.003 0.094v5.138c-1.281 1.991-3.442 3.173-5.817 3.173-3.814 0-6.917-3.103-6.917-6.917v-6.793h1.364v3.682c0 0.377 0.305 0.682 0.682 0.682s0.682-0.305 0.682-0.682v-3.682h11.107v3.514zM15.198 15.073h-11.107v-6.793c0-2.31 1.879-4.19 4.19-4.19s4.19 1.88 4.19 4.19c0 0.377 0.305 0.682 0.682 0.682s0.682-0.305 0.682-0.682c0-3.062-2.491-5.553-5.553-5.553s-5.553 2.491-5.553 5.553v6.793h-1.364v-6.793c0-3.814 3.103-6.917 6.917-6.917s6.917 3.103 6.917 6.917v6.793zM33.545 27.519c0 0.407-0.625 1.095-2.386 1.695-1.768 0.602-4.131 0.933-6.656 0.933s-4.888-0.331-6.656-0.933c-1.761-0.599-2.386-1.287-2.386-1.695v-0.349l0-0.001v-3.26c0.478 0.318 1.111 0.628 1.946 0.912 1.905 0.648 4.425 1.006 7.095 1.006s5.19-0.357 7.095-1.006c0.836-0.284 1.469-0.595 1.946-0.912v3.611zM31.16 23.53c-1.768 0.602-4.131 0.933-6.656 0.933-2.333 0-4.528-0.284-6.243-0.801l14.626-2.695c0.467 0.334 0.658 0.644 0.658 0.869 0 0.407-0.625 1.095-2.386 1.695z"></path>
<path fill="#f1cdb3" style="fill: var(--color1, #f1cdb3)" d="M3.891 22.343c-0.031-0.031-0.066-0.060-0.104-0.085s-0.077-0.046-0.118-0.063c-0.041-0.017-0.084-0.030-0.127-0.039-0.088-0.018-0.178-0.018-0.266 0-0.044 0.009-0.087 0.022-0.128 0.039s-0.080 0.038-0.117 0.063c-0.038 0.025-0.072 0.053-0.104 0.085s-0.060 0.066-0.085 0.104c-0.025 0.037-0.046 0.076-0.063 0.118s-0.031 0.084-0.039 0.127c-0.009 0.044-0.014 0.089-0.014 0.133s0.005 0.089 0.014 0.134c0.008 0.044 0.022 0.087 0.039 0.128s0.038 0.080 0.063 0.118c0.025 0.037 0.053 0.072 0.085 0.104 0.096 0.095 0.217 0.16 0.349 0.186 0.044 0.009 0.089 0.013 0.133 0.013 0.089 0 0.178-0.017 0.26-0.052 0.041-0.017 0.081-0.038 0.118-0.063s0.072-0.053 0.104-0.085c0.031-0.032 0.060-0.067 0.085-0.104s0.046-0.077 0.063-0.118 0.031-0.084 0.040-0.128c0.009-0.044 0.013-0.089 0.013-0.134 0-0.179-0.073-0.355-0.2-0.482z"></path>
</symbol>
</defs>
</svg>
